<svg xmlns="http://www.w3.org/2000/svg" width="253.776" height="63.976"><g data-name="Group 266"><g data-name="Group 253"><g data-name="Group 251"><path data-name="Path 95" d="M81.091 33.38l3.4-4.476a10.742 10.742 0 007.146 2.914c1.638 0 2.519-.625 2.519-1.665v-.069c0-1.007-.724-1.561-3.715-2.325-4.69-1.18-8.31-2.637-8.31-7.634v-.069c0-4.511 3.243-7.772 8.531-7.772a13.044 13.044 0 019.065 3.226l-3.053 4.753a10.412 10.412 0 00-6.17-2.394c-1.48 0-2.2.694-2.2 1.561v.069c0 1.111.755 1.6 3.809 2.36 5.068 1.214 8.216 3.019 8.216 7.564v.069c0 4.962-3.557 7.911-8.908 7.911a14.549 14.549 0 01-10.33-4.023z"/><path data-name="Path 96" d="M108.041 18.601h-6.61v-5.9h19.328v5.9h-6.61v18.39h-6.107z"/><path data-name="Path 97" d="M123.439 12.701h10.419c3.368 0 5.7.971 7.177 2.638a7.962 7.962 0 011.952 5.655v.069a7.71 7.71 0 01-4.533 7.461l5.257 8.466h-7.051l-4.439-7.356h-2.676v7.356h-6.107zm10.136 11.659c2.078 0 3.274-1.111 3.274-2.88v-.069c0-1.909-1.259-2.88-3.305-2.88h-4v5.829z"/><path data-name="Path 98" d="M153.317 12.53h5.886l9.381 24.462h-6.546l-1.605-4.337h-8.5l-1.574 4.337h-6.421zm5.351 14.885l-2.455-6.9-2.487 6.9z"/><path data-name="Path 99" d="M173.28 18.601h-6.611v-5.9h19.327v5.9h-6.611v18.39h-6.107z"/><path data-name="Path 100" d="M188.677 12.701h17.722v5.725h-11.678v3.678h10.577v5.309h-10.577v3.851h11.836v5.725h-17.88z"/><path data-name="Path 101" d="M208.764 24.917v-.069c0-7.079 5.036-12.63 11.867-12.63a12.175 12.175 0 018.941 3.539l-3.589 4.754a7.392 7.392 0 00-5.32-2.29c-3.179 0-5.634 2.949-5.634 6.662v.069c0 3.921 2.487 6.731 5.981 6.731a5.791 5.791 0 003.525-1.007v-2.949h-4.344v-4.926h10.136v10.93a14.1 14.1 0 01-9.569 3.747c-6.863 0-11.994-5.204-11.994-12.561z"/><path data-name="Path 102" d="M239.146 27.901l-8.373-15.2h6.956l4.533 8.848 4.565-8.848h6.833l-8.375 15.1v9.194h-6.139z"/></g><g data-name="Group 252" fill="#17498a"><path data-name="Path 103" d="M81.667 43.518h1.718v6.168h-1.718z"/><path data-name="Path 104" d="M84.421 44.92h1.674v.67a1.769 1.769 0 011.428-.775 1.561 1.561 0 011.621 1.753v3.119H87.47v-2.582c0-.52-.273-.8-.67-.8a.705.705 0 00-.705.8v2.582h-1.674z"/><path data-name="Path 105" d="M90.296 48.206v-1.938h-.564V44.92h.564v-1.207h1.674v1.207h1.11v1.348h-1.11v1.612c0 .335.15.476.458.476a1.47 1.47 0 00.634-.158v1.313a2.392 2.392 0 01-1.163.273 1.4 1.4 0 01-1.603-1.578z"/><path data-name="Path 106" d="M93.478 47.325v-.018a2.391 2.391 0 012.406-2.493 2.346 2.346 0 012.406 2.608c0 .106 0 .229-.009.344h-3.19a.984.984 0 001.031.784 1.439 1.439 0 001.058-.485l.925.767a2.5 2.5 0 01-2.071.969 2.4 2.4 0 01-2.556-2.476zm3.243-.414c-.062-.529-.37-.863-.828-.863-.441 0-.74.344-.828.863z"/><path data-name="Path 107" d="M99.002 44.919h1.674v.96a1.459 1.459 0 011.507-1.04v1.759h-.141c-.872 0-1.366.5-1.366 1.6v1.481h-1.674z"/><path data-name="Path 108" d="M102.491 47.325v-.018a2.639 2.639 0 015.269-.017v.017a2.639 2.639 0 01-5.269.018zm3.639 0v-.018a1.033 1.033 0 00-1.013-1.075 1 1 0 00-1 1.057v.017a1.033 1.033 0 001.013 1.075 1 1 0 001-1.056z"/><path data-name="Path 109" d="M108.465 44.92h1.674v.634a1.749 1.749 0 011.445-.74 2.233 2.233 0 012.115 2.467v.018a2.241 2.241 0 01-2.106 2.493 1.789 1.789 0 01-1.454-.687v1.991h-1.674zm3.586 2.388v-.017a.978.978 0 10-1.947 0v.017a.979.979 0 101.947 0z"/><path data-name="Path 110" d="M114.227 47.325v-.018a2.391 2.391 0 012.406-2.493 2.346 2.346 0 012.406 2.608c0 .106 0 .229-.009.344h-3.19a.984.984 0 001.031.784 1.438 1.438 0 001.057-.485l.925.767a2.5 2.5 0 01-2.071.969 2.4 2.4 0 01-2.555-2.476zm3.243-.414c-.062-.529-.37-.863-.828-.863-.441 0-.74.344-.828.863z"/><path data-name="Path 111" d="M119.751 44.919h1.674v.96a1.459 1.459 0 011.507-1.04v1.759h-.141c-.872 0-1.366.5-1.366 1.6v1.481h-1.674z"/><path data-name="Path 112" d="M123.064 48.32v-.017c0-.987.749-1.5 1.868-1.5a3.65 3.65 0 011.146.185v-.079c0-.494-.308-.776-.952-.776a3.359 3.359 0 00-1.313.265l-.344-1.181a4.792 4.792 0 011.93-.37 2.448 2.448 0 011.815.581 1.99 1.99 0 01.511 1.516v2.741h-1.656v-.494a1.8 1.8 0 01-1.4.6 1.447 1.447 0 01-1.605-1.471zm3.031-.361v-.22a1.75 1.75 0 00-.652-.123c-.484 0-.767.238-.767.59v.018a.525.525 0 00.59.52.766.766 0 00.829-.785z"/><path data-name="Path 113" d="M130.253 49.105v.582h-1.674v-6.433h1.674v2.3a1.749 1.749 0 011.445-.74 2.233 2.233 0 012.115 2.467v.018a2.241 2.241 0 01-2.106 2.493 1.789 1.789 0 01-1.454-.687zm1.912-1.8v-.018a.978.978 0 10-1.947 0v.017a.979.979 0 101.947 0z"/><path data-name="Path 114" d="M134.535 43.254h1.745v1.233h-1.745zm.035 1.666h1.675v4.767h-1.675z"/><path data-name="Path 115" d="M137.213 43.254h1.675v6.433h-1.675z"/><path data-name="Path 116" d="M139.822 43.254h1.745v1.233h-1.745zm.035 1.666h1.674v4.767h-1.671z"/><path data-name="Path 117" d="M142.755 48.206v-1.938h-.567V44.92h.564v-1.207h1.674v1.207h1.11v1.348h-1.11v1.612c0 .335.15.476.458.476a1.47 1.47 0 00.634-.158v1.313a2.392 2.392 0 01-1.163.273 1.4 1.4 0 01-1.6-1.578z"/><path data-name="Path 118" d="M146.138 50.708l.52-1.172a1.62 1.62 0 00.732.255.418.418 0 00.388-.194l-1.868-4.679h1.754l.951 2.873.9-2.873h1.718l-1.745 4.653c-.414 1.111-.864 1.551-1.815 1.551a3.082 3.082 0 01-1.535-.414z"/><path data-name="Path 119" d="M154.517 46.258h-.555v-1.313h.555v-.106a1.657 1.657 0 01.405-1.234 1.632 1.632 0 011.242-.414 3.649 3.649 0 011.093.132v1.181a1.973 1.973 0 00-.625-.1c-.309 0-.476.141-.476.45v.115h1.093v1.286h-1.066v3.432h-1.665z"/><path data-name="Path 120" d="M157.495 47.325v-.018a2.639 2.639 0 015.269-.017v.017a2.639 2.639 0 01-5.269.018zm3.639 0v-.018a1.033 1.033 0 00-1.013-1.075 1 1 0 00-1 1.057v.017a1.034 1.034 0 001.013 1.075 1 1 0 001-1.056z"/><path data-name="Path 121" d="M163.469 44.919h1.674v.96a1.459 1.459 0 011.507-1.04v1.759h-.141c-.872 0-1.366.5-1.366 1.6v1.481h-1.674z"/><path data-name="Path 122" d="M169.486 47.324v-.018a2.477 2.477 0 012.556-2.485 2.255 2.255 0 012.035 1.066l-1.137.846a1.027 1.027 0 00-.89-.5.989.989 0 00-.934 1.057v.017a.989.989 0 00.952 1.084 1.143 1.143 0 00.916-.493l1.119.811a2.365 2.365 0 01-2.123 1.093 2.46 2.46 0 01-2.494-2.478z"/><path data-name="Path 123" d="M174.693 44.919h1.674v.96a1.459 1.459 0 011.507-1.04v1.759h-.141c-.872 0-1.366.5-1.366 1.6v1.481h-1.674z"/><path data-name="Path 124" d="M178.464 43.254h1.745v1.233h-1.745zm.035 1.666h1.674v4.767h-1.674z"/><path data-name="Path 125" d="M180.746 49.087l.625-1.013a3.1 3.1 0 001.639.546c.291 0 .423-.088.423-.255v-.017c0-.185-.265-.264-.767-.406-.943-.246-1.692-.564-1.692-1.524v-.017c0-1.013.811-1.578 1.912-1.578a3.725 3.725 0 011.965.555l-.573 1.057a3.232 3.232 0 00-1.41-.44c-.255 0-.388.1-.388.229v.018c0 .185.273.273.776.423.943.264 1.692.59 1.692 1.516v.018c0 1.049-.784 1.595-1.947 1.595a3.845 3.845 0 01-2.255-.707z"/><path data-name="Path 126" d="M185.636 43.254h1.745v1.233h-1.745zm.035 1.666h1.674v4.767h-1.674z"/><path data-name="Path 127" d="M187.918 49.087l.626-1.013a3.1 3.1 0 001.635.55c.291 0 .423-.088.423-.255v-.017c0-.185-.264-.264-.766-.406-.943-.246-1.692-.564-1.692-1.524v-.017c0-1.013.811-1.578 1.912-1.578a3.726 3.726 0 011.965.555l-.573 1.057a3.231 3.231 0 00-1.41-.44c-.256 0-.388.1-.388.229v.018c0 .185.273.273.776.423.943.264 1.692.59 1.692 1.516v.018c0 1.049-.784 1.595-1.947 1.595a3.845 3.845 0 01-2.253-.711z"/><path data-name="Path 128" d="M195.248 44.92h1.674v.652a1.75 1.75 0 011.418-.757 1.46 1.46 0 011.374.775 2.006 2.006 0 011.6-.775 1.548 1.548 0 011.63 1.745v3.128h-1.674v-2.591c0-.52-.255-.793-.652-.793s-.687.273-.687.793v2.591h-1.674v-2.591c0-.52-.256-.793-.652-.793s-.678.273-.678.793v2.591h-1.674z"/><path data-name="Path 129" d="M203.565 48.32v-.017c0-.987.749-1.5 1.868-1.5a3.652 3.652 0 011.146.185v-.079c0-.494-.309-.776-.951-.776a3.359 3.359 0 00-1.313.265l-.343-1.181a4.787 4.787 0 011.93-.37 2.449 2.449 0 011.815.581 1.993 1.993 0 01.511 1.516v2.741h-1.657v-.494a1.8 1.8 0 01-1.4.6 1.448 1.448 0 01-1.606-1.471zm3.032-.361v-.22a1.754 1.754 0 00-.652-.123c-.485 0-.767.238-.767.59v.018a.525.525 0 00.591.52.766.766 0 00.828-.785z"/><path data-name="Path 130" d="M209.081 44.92h1.674v.67a1.767 1.767 0 011.427-.775 1.561 1.561 0 011.621 1.753v3.119h-1.674v-2.582c0-.52-.273-.8-.67-.8a.705.705 0 00-.7.8v2.582h-1.674z"/><path data-name="Path 131" d="M214.428 48.32v-.017c0-.987.749-1.5 1.868-1.5a3.649 3.649 0 011.145.185v-.079c0-.494-.309-.776-.951-.776a3.359 3.359 0 00-1.313.265l-.343-1.181a4.789 4.789 0 011.93-.37 2.449 2.449 0 011.815.581 1.993 1.993 0 01.511 1.516v2.741h-1.656v-.494a1.8 1.8 0 01-1.4.6 1.448 1.448 0 01-1.606-1.471zm3.032-.361v-.22a1.754 1.754 0 00-.652-.123c-.484 0-.767.238-.767.59v.018a.525.525 0 00.59.52.766.766 0 00.829-.785z"/><path data-name="Path 132" d="M219.9 50.568l.538-1.111a3.287 3.287 0 001.665.45c.837 0 1.251-.414 1.251-1.172v-.185a1.847 1.847 0 01-1.472.714 2.076 2.076 0 01-2.114-2.212v-.014a2.078 2.078 0 012.062-2.22 1.914 1.914 0 011.5.669v-.564h1.674v3.615a2.541 2.541 0 01-.617 1.9 2.833 2.833 0 01-2.1.67 5.107 5.107 0 01-2.387-.54zm3.454-3.516v-.014a.913.913 0 00-.969-.917.922.922 0 00-.978.925v.018a.975.975 0 001.947-.009z"/><path data-name="Path 133" d="M225.706 47.325v-.018a2.391 2.391 0 012.406-2.493 2.346 2.346 0 012.405 2.608c0 .106 0 .229-.009.344h-3.19a.984.984 0 001.031.784 1.44 1.44 0 001.058-.485l.925.767a2.5 2.5 0 01-2.071.969 2.4 2.4 0 01-2.555-2.476zm3.243-.414c-.062-.529-.37-.863-.828-.863-.44 0-.74.344-.828.863z"/><path data-name="Path 134" d="M231.23 44.92h1.675v.652a1.749 1.749 0 011.418-.757 1.461 1.461 0 011.374.775 2 2 0 011.595-.775 1.548 1.548 0 011.63 1.745v3.128h-1.674v-2.591c0-.52-.255-.793-.652-.793s-.687.273-.687.793v2.591h-1.675v-2.591c0-.52-.255-.793-.652-.793s-.678.273-.678.793v2.591h-1.675z"/><path data-name="Path 135" d="M239.591 47.325v-.018a2.391 2.391 0 012.406-2.493 2.346 2.346 0 012.406 2.608c0 .106 0 .229-.009.344h-3.19a.985.985 0 001.031.784 1.439 1.439 0 001.057-.485l.925.767a2.5 2.5 0 01-2.071.969 2.4 2.4 0 01-2.555-2.476zm3.243-.414a.852.852 0 00-.828-.863c-.44 0-.74.344-.828.863z"/><path data-name="Path 136" d="M245.116 44.92h1.674v.67a1.767 1.767 0 011.428-.775 1.561 1.561 0 011.621 1.753v3.119h-1.674v-2.582c0-.52-.273-.8-.67-.8a.705.705 0 00-.7.8v2.582h-1.679z"/><path data-name="Path 137" d="M250.992 48.206v-1.938h-.564V44.92h.564v-1.207h1.674v1.207h1.11v1.348h-1.11v1.612c0 .335.15.476.458.476a1.47 1.47 0 00.634-.158v1.313a2.392 2.392 0 01-1.163.273 1.4 1.4 0 01-1.603-1.578z"/></g></g><g data-name="Group 254"><path data-name="Path 138" d="M47.05 26.035a81.088 81.088 0 00-10.515-5.461c-.123-.047-.236-.1-.358-.151a94.905 94.905 0 00-3.141 2.169c.707.339 1.415.679 2.113 1.037a86.723 86.723 0 019.384 5.555q1.344-1.57 2.518-3.131v-.009a.009.009 0 00.009-.009zM21.794 15.67a38.97 38.97 0 00-.915 2.339 64.987 64.987 0 018.309 2.867 104.19 104.19 0 012.726-2.15 78.578 78.578 0 00-10.12-3.056z" fill="#f5851f"/><path data-name="Path 139" d="M47.258 32.015l.019.019v-.029a.033.033 0 01-.019.01zm0 0l.019.019v-.029a.033.033 0 01-.019.01zm0 0l.019.019v-.029a.033.033 0 01-.019.01zm0 0l.019.019v-.029a.033.033 0 01-.019.01zm0 0l.019.019v-.029a.033.033 0 01-.019.01zm0 0l.019.019v-.029a.033.033 0 01-.019.01zm0 0l.019.019v-.029a.033.033 0 01-.019.01zm.509-6.366c.009.009 0 .028 0 .038.019-.009.019-.019.028-.028-.009-.01-.018-.02-.028-.01zm-.509 6.366l.019.019v-.029a.033.033 0 01-.019.01zm0 0l.019.019v-.029a.033.033 0 01-.019.01zm0 0l.019.019v-.029a.033.033 0 01-.019.01zm0 0l.019.019v-.029a.033.033 0 01-.019.01zm0 0l.019.019v-.029a.033.033 0 01-.019.01zm0 0l.019.019v-.029a.033.033 0 01-.019.01zm0 0l.019.019v-.029a.033.033 0 01-.019.01zm0 0l.019.019v-.029a.033.033 0 01-.019.01zm0 0l.019.019v-.029a.033.033 0 01-.019.01zm0 0l.019.019v-.029a.033.033 0 01-.019.01z" fill="#fff"/></g><g data-name="Group 255"><path data-name="Path 140" d="M47.767 25.649c.009.009 0 .028 0 .038.019-.009.019-.019.028-.028-.009-.01-.018-.02-.028-.01zm-.509 6.366l.019.019v-.029a.033.033 0 01-.019.01z" fill="#f5851f"/><path data-name="Path 141" d="M47.258 32.02l.019.019v-.028a.033.033 0 01-.019.009zm-.208-5.979v.009a.009.009 0 00.009-.009zm.208 5.979l.019.019v-.028a.033.033 0 01-.019.009zm-.208-5.979v.009a.009.009 0 00.009-.009zm.208 5.979l.019.019v-.028a.033.033 0 01-.019.009zm-.208-5.979v.009a.009.009 0 00.009-.009zm.208 5.979l.019.019v-.028a.033.033 0 01-.019.009zm-.208-5.979v.009a.009.009 0 00.009-.009zm.208 5.979l.019.019v-.028a.033.033 0 01-.019.009zm-.208-5.979v.009a.009.009 0 00.009-.009zm.208 5.979l.019.019v-.028a.033.033 0 01-.019.009zm0 0l.019.019v-.028a.033.033 0 01-.019.009zm0 0l.019.019v-.028a.033.033 0 01-.019.009zm0 0l.019.019v-.028a.033.033 0 01-.019.009zm0 0l.019.019v-.028a.033.033 0 01-.019.009zm0 0l.019.019v-.028a.033.033 0 01-.019.009zm0 0l.019.019v-.028a.033.033 0 01-.019.009zm0 0l.019.019v-.028a.033.033 0 01-.019.009zm0 0l.019.019v-.028a.033.033 0 01-.019.009zm0 0l.019.019v-.028a.033.033 0 01-.019.009zm0 0l.019.019v-.028a.033.033 0 01-.019.009zm0 0l.019.019v-.028a.033.033 0 01-.019.009zm-.208-5.979v.009a.009.009 0 00.009-.009zm.208 5.979l.019.019v-.028a.033.033 0 01-.019.009zm0 0l.019.019v-.028a.033.033 0 01-.019.009zm0 0l.019.019v-.028a.033.033 0 01-.019.009zm0 0l.019.019v-.028a.033.033 0 01-.019.009zm0 0l.019.019v-.028a.033.033 0 01-.019.009zm0 0l.019.019v-.028a.033.033 0 01-.019.009zm0 0l.019.019v-.028a.033.033 0 01-.019.009zm0 0l.019.019v-.028a.033.033 0 01-.019.009zm0 0l.019.019v-.028a.033.033 0 01-.019.009zm0 0l.019.019v-.028a.033.033 0 01-.019.009zm0 0l.019.019v-.028a.033.033 0 01-.019.009zm0 0l.019.019v-.028a.033.033 0 01-.019.009zm0 0l.019.019v-.028a.033.033 0 01-.019.009zm-.208-5.979v.009a.009.009 0 00.009-.009zm.208 5.979l.019.019v-.028a.033.033 0 01-.019.009zm-.208-5.979v.009a.009.009 0 00.009-.009z" fill="#fff"/></g><g data-name="Group 256"><path data-name="Path 142" d="M47.763 25.649c.009.009 0 .028 0 .038.019-.009.019-.019.028-.028-.005-.01-.015-.02-.028-.01zm0 0c.009.009 0 .028 0 .038.019-.009.019-.019.028-.028-.005-.01-.015-.02-.028-.01zm0 0c.009.009 0 .028 0 .038.019-.009.019-.019.028-.028-.005-.01-.015-.02-.028-.01zm0 0c.009.009 0 .028 0 .038.019-.009.019-.019.028-.028-.005-.01-.015-.02-.028-.01zm0 0c.009.009 0 .028 0 .038.019-.009.019-.019.028-.028-.005-.01-.015-.02-.028-.01zm0 0c.009.009 0 .028 0 .038.019-.009.019-.019.028-.028-.005-.01-.015-.02-.028-.01zm0 0c.009.009 0 .028 0 .038.019-.009.019-.019.028-.028-.005-.01-.015-.02-.028-.01zm0 0c.009.009 0 .028 0 .038.019-.009.019-.019.028-.028-.005-.01-.015-.02-.028-.01zm0 0c.009.009 0 .028 0 .038.019-.009.019-.019.028-.028-.005-.01-.015-.02-.028-.01zm0 0c.009.009 0 .028 0 .038.019-.009.019-.019.028-.028-.005-.01-.015-.02-.028-.01zm0 0c.009.009 0 .028 0 .038.019-.009.019-.019.028-.028-.005-.01-.015-.02-.028-.01zm0 0c.009.009 0 .028 0 .038.019-.009.019-.019.028-.028-.005-.01-.015-.02-.028-.01zm0 0c.009.009 0 .028 0 .038.019-.009.019-.019.028-.028-.005-.01-.015-.02-.028-.01zm0 0c.009.009 0 .028 0 .038.019-.009.019-.019.028-.028-.005-.01-.015-.02-.028-.01zm0 0c.009.009 0 .028 0 .038.019-.009.019-.019.028-.028-.005-.01-.015-.02-.028-.01zm0 0c.009.009 0 .028 0 .038.019-.009.019-.019.028-.028-.005-.01-.015-.02-.028-.01zm0 0c.009.009 0 .028 0 .038.019-.009.019-.019.028-.028-.005-.01-.015-.02-.028-.01zm0 0c.009.009 0 .028 0 .038.019-.009.019-.019.028-.028-.005-.01-.015-.02-.028-.01zm0 0c.009.009 0 .028 0 .038.019-.009.019-.019.028-.028-.005-.01-.015-.02-.028-.01zm0 0c.009.009 0 .028 0 .038.019-.009.019-.019.028-.028-.005-.01-.015-.02-.028-.01zm0 0c.009.009 0 .028 0 .038.019-.009.019-.019.028-.028-.005-.01-.015-.02-.028-.01zm0 0c.009.009 0 .028 0 .038.019-.009.019-.019.028-.028-.005-.01-.015-.02-.028-.01zm0 0c.009.009 0 .028 0 .038.019-.009.019-.019.028-.028-.005-.01-.015-.02-.028-.01zm0 0c.009.009 0 .028 0 .038.019-.009.019-.019.028-.028-.005-.01-.015-.02-.028-.01zm0 0c.009.009 0 .028 0 .038.019-.009.019-.019.028-.028-.005-.01-.015-.02-.028-.01zm0 0c.009.009 0 .028 0 .038.019-.009.019-.019.028-.028-.005-.01-.015-.02-.028-.01zm0 0c.009.009 0 .028 0 .038.019-.009.019-.019.028-.028-.005-.01-.015-.02-.028-.01zm0 0c.009.009 0 .028 0 .038.019-.009.019-.019.028-.028-.005-.01-.015-.02-.028-.01zm0 0c.009.009 0 .028 0 .038.019-.009.019-.019.028-.028-.005-.01-.015-.02-.028-.01zm0 0c.009.009 0 .028 0 .038.019-.009.019-.019.028-.028-.005-.01-.015-.02-.028-.01zm0 0c.009.009 0 .028 0 .038.019-.009.019-.019.028-.028-.005-.01-.015-.02-.028-.01zm0 0c.009.009 0 .028 0 .038.019-.009.019-.019.028-.028-.005-.01-.015-.02-.028-.01zm0 0c.009.009 0 .028 0 .038.019-.009.019-.019.028-.028-.005-.01-.015-.02-.028-.01zm0 0c.009.009 0 .028 0 .038.019-.009.019-.019.028-.028-.005-.01-.015-.02-.028-.01zm0 0c.009.009 0 .028 0 .038.019-.009.019-.019.028-.028-.005-.01-.015-.02-.028-.01zm0 0c.009.009 0 .028 0 .038.019-.009.019-.019.028-.028-.005-.01-.015-.02-.028-.01zm0 0c.009.009 0 .028 0 .038.019-.009.019-.019.028-.028-.005-.01-.015-.02-.028-.01zm0 0c.009.009 0 .028 0 .038.019-.009.019-.019.028-.028-.005-.01-.015-.02-.028-.01zm0 0c.009.009 0 .028 0 .038.019-.009.019-.019.028-.028-.005-.01-.015-.02-.028-.01zm0 0c.009.009 0 .028 0 .038.019-.009.019-.019.028-.028-.005-.01-.015-.02-.028-.01zm0 0c.009.009 0 .028 0 .038.019-.009.019-.019.028-.028-.005-.01-.015-.02-.028-.01zm0 0c.009.009 0 .028 0 .038.019-.009.019-.019.028-.028-.005-.01-.015-.02-.028-.01zm0 0c.009.009 0 .028 0 .038.019-.009.019-.019.028-.028-.005-.01-.015-.02-.028-.01zm0 0c.009.009 0 .028 0 .038.019-.009.019-.019.028-.028-.005-.01-.015-.02-.028-.01z" fill="#fff"/></g><path data-name="Path 143" d="M51.36 28.487v.443a60.847 60.847 0 01-.17 3.933c-.038.462-.076.915-.132 1.377-.009.142-.028.283-.047.434s-.028.292-.038.434a52.635 52.635 0 01-1.933 9.157 39.048 39.048 0 01-4.754-.651A51.766 51.766 0 0047.2 32.542c.028-.17.047-.339.076-.509v-.037l.057-.377.028-.217a1.144 1.144 0 01.019-.179c.019-.142.038-.283.047-.434.17-1.434.283-2.876.321-4.329a1.059 1.059 0 00.009-.17c0-.076.009-.151.009-.236v-.368c.019-.009.019-.019.028-.028-.009-.009-.019-.019-.028-.009.009-.189.009-.387.009-.575a39.7 39.7 0 00-1.179-9.941.92.92 0 00-.047-.151c.566-.2 1.1-.368 1.622-.5.4-.1.783-.189 1.141-.245.038.113.066.217.1.33a42.5 42.5 0 011.321 5.847 4.293 4.293 0 01.094.594q.057.283.085.566c.2 1.49.33 2.99.387 4.489.019.179.019.358.028.538s.009.387.009.575c.009.292.019.575.009.868.015.141.015.292.015.443z" fill="#f5851f"/><path data-name="Path 144" d="M47.003 27.261a40.449 40.449 0 01-.283 3.48 16.978 16.978 0 01-.1.792.325.325 0 01-.019.161 96.066 96.066 0 01-9.223 8.752c-.424.349-.839.7-1.273 1.037a1.371 1.371 0 01-.179.151l-2.235-.717.208-.179a94.768 94.768 0 002.273-1.98 96.319 96.319 0 008.488-8.63 2.792 2.792 0 00.226-.264c.085-.095.16-.179.236-.274a77.948 77.948 0 001.881-2.329z" fill="#f5851f"/><path data-name="Path 145" d="M31.48 45.039c-.076.047-.161.1-.236.16a79.425 79.425 0 01-8.639 5.432c-.358.189-.707.377-1.066.547a1.405 1.405 0 01-.17.085l-.688-1.386c.076-.038.16-.076.236-.123.481-.255.971-.519 1.452-.792a69.783 69.783 0 006.989-4.612c.085-.057.16-.123.254-.189z" fill="#f5851f"/><path data-name="Path 146" d="M36.406 16.397a100.37 100.37 0 00-18.762 16.56c.473.32.962.6 1.443.9a94.34 94.34 0 0118.655-15.25 3.657 3.657 0 01-1.336-2.21zm-19.5 11.327a3.74 3.74 0 01-2.754-.557c-.192 1.01-.392 2.014-.519 3.028a53.075 53.075 0 003.4 2.377c.17-.189.33-.377.5-.566.073-1.562.208-3.115.424-4.668a3.558 3.558 0 01-1.058.386zm19.5-11.327a100.37 100.37 0 00-18.762 16.56c.473.32.962.6 1.443.9a94.34 94.34 0 0118.655-15.25 3.657 3.657 0 01-1.336-2.21zm0 0a100.37 100.37 0 00-18.762 16.56c.473.32.962.6 1.443.9a94.34 94.34 0 0118.655-15.25 3.657 3.657 0 01-1.336-2.21zm-19.5 11.327a3.74 3.74 0 01-2.754-.557c-.192 1.01-.392 2.014-.519 3.028a53.075 53.075 0 003.4 2.377c.17-.189.33-.377.5-.566.073-1.562.208-3.115.424-4.668a3.558 3.558 0 01-1.058.386zm19.5-11.327a100.37 100.37 0 00-18.762 16.56c.473.32.962.6 1.443.9a94.34 94.34 0 0118.655-15.25 3.657 3.657 0 01-1.336-2.21zm0 0a100.37 100.37 0 00-18.762 16.56c.473.32.962.6 1.443.9a94.34 94.34 0 0118.655-15.25 3.657 3.657 0 01-1.336-2.21zm-19.5 11.327a3.74 3.74 0 01-2.754-.557c-.192 1.01-.392 2.014-.519 3.028a53.075 53.075 0 003.4 2.377c.17-.189.33-.377.5-.566.073-1.562.208-3.115.424-4.668a3.558 3.558 0 01-1.058.386zm0 0a3.74 3.74 0 01-2.754-.557c-.192 1.01-.392 2.014-.519 3.028a53.075 53.075 0 003.4 2.377c.17-.189.33-.377.5-.566.073-1.562.208-3.115.424-4.668a3.558 3.558 0 01-1.058.386zm19.5-11.327a100.37 100.37 0 00-18.762 16.56c.473.32.962.6 1.443.9a94.34 94.34 0 0118.655-15.25 3.657 3.657 0 01-1.336-2.21zm0 0a100.37 100.37 0 00-18.762 16.56c.473.32.962.6 1.443.9a94.34 94.34 0 0118.655-15.25 3.657 3.657 0 01-1.336-2.21zm-19.5 11.327a3.74 3.74 0 01-2.754-.557c-.192 1.01-.392 2.014-.519 3.028a53.075 53.075 0 003.4 2.377c.17-.189.33-.377.5-.566.073-1.562.208-3.115.424-4.668a3.558 3.558 0 01-1.058.386zm0 0a3.74 3.74 0 01-2.754-.557c-.192 1.01-.392 2.014-.519 3.028a53.075 53.075 0 003.4 2.377c.17-.189.33-.377.5-.566.073-1.562.208-3.115.424-4.668a3.558 3.558 0 01-1.058.386zm19.5-11.327a100.37 100.37 0 00-18.762 16.56c.473.32.962.6 1.443.9a94.34 94.34 0 0118.655-15.25 3.657 3.657 0 01-1.336-2.21zm0 0a100.37 100.37 0 00-18.762 16.56c.473.32.962.6 1.443.9a94.34 94.34 0 0118.655-15.25 3.657 3.657 0 01-1.336-2.21zm-19.5 11.327a3.74 3.74 0 01-2.754-.557c-.192 1.01-.392 2.014-.519 3.028a53.075 53.075 0 003.4 2.377c.17-.189.33-.377.5-.566.073-1.562.208-3.115.424-4.668a3.558 3.558 0 01-1.058.386zm0 0a3.74 3.74 0 01-2.754-.557c-.192 1.01-.392 2.014-.519 3.028a53.075 53.075 0 003.4 2.377c.17-.189.33-.377.5-.566.073-1.562.208-3.115.424-4.668a3.558 3.558 0 01-1.058.386zm19.5-11.327a100.37 100.37 0 00-18.762 16.56c.473.32.962.6 1.443.9a94.34 94.34 0 0118.655-15.25 3.657 3.657 0 01-1.336-2.21zm0 0a100.37 100.37 0 00-18.762 16.56c.473.32.962.6 1.443.9a94.34 94.34 0 0118.655-15.25 3.657 3.657 0 01-1.336-2.21zm-19.5 11.327a3.74 3.74 0 01-2.754-.557c-.192 1.01-.392 2.014-.519 3.028a53.075 53.075 0 003.4 2.377c.17-.189.33-.377.5-.566.073-1.562.208-3.115.424-4.668a3.558 3.558 0 01-1.058.386zm0 0a3.74 3.74 0 01-2.754-.557c-.192 1.01-.392 2.014-.519 3.028a53.075 53.075 0 003.4 2.377c.17-.189.33-.377.5-.566.073-1.562.208-3.115.424-4.668a3.558 3.558 0 01-1.058.386zm19.5-11.327a100.37 100.37 0 00-18.762 16.56c.473.32.962.6 1.443.9a94.34 94.34 0 0118.655-15.25 3.657 3.657 0 01-1.336-2.21zm0 0a100.37 100.37 0 00-18.762 16.56c.473.32.962.6 1.443.9a94.34 94.34 0 0118.655-15.25 3.657 3.657 0 01-1.336-2.21zm-18.447 10.94a3.687 3.687 0 01-3.81-.17c-.192 1.01-.392 2.014-.519 3.028a53.075 53.075 0 003.4 2.377c.17-.189.33-.377.5-.566.076-1.563.209-3.116.425-4.669zm43.685-8.167C44.131-18.589-11.966 4.659 2.304 43.748 19.2 83.419 77.78 59.121 61.64 19.169zm-1.981 16.693c-.043.321-.114.656-.179.971a33.866 33.866 0 00-7.423-7.384 54.213 54.213 0 01-.349 5.375c12.039 11.085.852 11.418-9.054 9.177a4.368 4.368 0 01-.4 4.272 35.083 35.083 0 0011.1 1.283 28.494 28.494 0 01-11.883 8.431 31.514 31.514 0 005.347-8.045 47.988 47.988 0 01-4.989-1.047c-11.086 20.512-23.785 5.811-24.219-11.063-1.53-.982-3-2.039-4.452-3.14a40.249 40.249 0 002.98 18.758h.009a20.97 20.97 0 001.641 3.037 25.725 25.725 0 01-3.82-2.443 14.885 14.885 0 001.669-.434l-.66-1.434a9.677 9.677 0 01-2.848.368 27.4 27.4 0 01-2.829-2.914c.151-2.714 1.728-5.322 3.244-7.677a39.283 39.283 0 01-.161-2.4 31.093 31.093 0 00-4.414 8.356 28.717 28.717 0 01-4.385-24.521c6.722 11.075 19.247 17.328 30.774 22.314a4.3 4.3 0 011.844-3.446 82.2 82.2 0 01-19.635-9.148c-9.992-5.656-19.742-19.284-.161-16.08q.467-1.117.962-2.207a26.18 26.18 0 00-9.8.047A28.7 28.7 0 0127.99 2.524c-6.21 4.224-9.664 10.978-12.044 17.787a3.709 3.709 0 013.1 1.311c.017-.088.045-.166.066-.254C21.058 8.377 37.218-7.294 45.076 10.739a27.325 27.325 0 012.48-.934 24.963 24.963 0 00-2.348-3.886 28.123 28.123 0 015.4 3.867 27.872 27.872 0 00-8.2 3 3.642 3.642 0 011.368 2.546c5.8-3.055 12.376-2.823 7.686 5.216a45.528 45.528 0 01.491 4.6 30.194 30.194 0 004.4-8.168 28.729 28.729 0 013.306 18.883zM36.406 16.397a100.37 100.37 0 00-18.762 16.56c.473.32.962.6 1.443.9a94.34 94.34 0 0118.655-15.25 3.657 3.657 0 01-1.336-2.21zm-18.447 10.94a3.687 3.687 0 01-3.81-.17c-.192 1.01-.392 2.014-.519 3.028a53.075 53.075 0 003.4 2.377c.17-.189.33-.377.5-.566.076-1.563.209-3.116.425-4.669zm-1.056.387a3.74 3.74 0 01-2.754-.557c-.192 1.01-.392 2.014-.519 3.028a53.075 53.075 0 003.4 2.377c.17-.189.33-.377.5-.566.073-1.562.208-3.115.424-4.668a3.558 3.558 0 01-1.055.386zm19.5-11.327a100.37 100.37 0 00-18.759 16.56c.473.32.962.6 1.443.9a94.34 94.34 0 0118.655-15.25 3.657 3.657 0 01-1.336-2.21zm0 0a100.37 100.37 0 00-18.759 16.56c.473.32.962.6 1.443.9a94.34 94.34 0 0118.655-15.25 3.657 3.657 0 01-1.336-2.21zm-19.5 11.327a3.74 3.74 0 01-2.754-.557c-.192 1.01-.392 2.014-.519 3.028a53.075 53.075 0 003.4 2.377c.17-.189.33-.377.5-.566.073-1.562.208-3.115.424-4.668a3.558 3.558 0 01-1.055.386zm0 0a3.74 3.74 0 01-2.754-.557c-.192 1.01-.392 2.014-.519 3.028a53.075 53.075 0 003.4 2.377c.17-.189.33-.377.5-.566.073-1.562.208-3.115.424-4.668a3.558 3.558 0 01-1.055.386zm19.5-11.327a100.37 100.37 0 00-18.759 16.56c.473.32.962.6 1.443.9a94.34 94.34 0 0118.655-15.25 3.657 3.657 0 01-1.336-2.21zm0 0a100.37 100.37 0 00-18.759 16.56c.473.32.962.6 1.443.9a94.34 94.34 0 0118.655-15.25 3.657 3.657 0 01-1.336-2.21zm-19.5 11.327a3.74 3.74 0 01-2.754-.557c-.192 1.01-.392 2.014-.519 3.028a53.075 53.075 0 003.4 2.377c.17-.189.33-.377.5-.566.073-1.562.208-3.115.424-4.668a3.558 3.558 0 01-1.055.386zm0 0a3.74 3.74 0 01-2.754-.557c-.192 1.01-.392 2.014-.519 3.028a53.075 53.075 0 003.4 2.377c.17-.189.33-.377.5-.566.073-1.562.208-3.115.424-4.668a3.558 3.558 0 01-1.055.386zm19.5-11.327a100.37 100.37 0 00-18.759 16.56c.473.32.962.6 1.443.9a94.34 94.34 0 0118.655-15.25 3.657 3.657 0 01-1.336-2.21zm0 0a100.37 100.37 0 00-18.759 16.56c.473.32.962.6 1.443.9a94.34 94.34 0 0118.655-15.25 3.657 3.657 0 01-1.336-2.21zm-19.5 11.327a3.74 3.74 0 01-2.754-.557c-.192 1.01-.392 2.014-.519 3.028a53.075 53.075 0 003.4 2.377c.17-.189.33-.377.5-.566.073-1.562.208-3.115.424-4.668a3.558 3.558 0 01-1.055.386zm0 0a3.74 3.74 0 01-2.754-.557c-.192 1.01-.392 2.014-.519 3.028a53.075 53.075 0 003.4 2.377c.17-.189.33-.377.5-.566.073-1.562.208-3.115.424-4.668a3.558 3.558 0 01-1.055.386zm19.5-11.327a100.37 100.37 0 00-18.759 16.56c.473.32.962.6 1.443.9a94.34 94.34 0 0118.655-15.25 3.657 3.657 0 01-1.336-2.21zm0 0a100.37 100.37 0 00-18.759 16.56c.473.32.962.6 1.443.9a94.34 94.34 0 0118.655-15.25 3.657 3.657 0 01-1.336-2.21zm-19.5 11.327a3.74 3.74 0 01-2.754-.557c-.192 1.01-.392 2.014-.519 3.028a53.075 53.075 0 003.4 2.377c.17-.189.33-.377.5-.566.073-1.562.208-3.115.424-4.668a3.558 3.558 0 01-1.055.386zm0 0a3.74 3.74 0 01-2.754-.557c-.192 1.01-.392 2.014-.519 3.028a53.075 53.075 0 003.4 2.377c.17-.189.33-.377.5-.566.073-1.562.208-3.115.424-4.668a3.558 3.558 0 01-1.055.386zm19.5-11.327a100.37 100.37 0 00-18.759 16.56c.473.32.962.6 1.443.9a94.34 94.34 0 0118.655-15.25 3.657 3.657 0 01-1.336-2.21zm0 0a100.37 100.37 0 00-18.759 16.56c.473.32.962.6 1.443.9a94.34 94.34 0 0118.655-15.25 3.657 3.657 0 01-1.336-2.21zm-19.5 11.327a3.74 3.74 0 01-2.754-.557c-.192 1.01-.392 2.014-.519 3.028a53.075 53.075 0 003.4 2.377c.17-.189.33-.377.5-.566.073-1.562.208-3.115.424-4.668a3.558 3.558 0 01-1.055.386zm19.5-11.327a100.37 100.37 0 00-18.759 16.56c.473.32.962.6 1.443.9a94.34 94.34 0 0118.655-15.25 3.657 3.657 0 01-1.336-2.21zm0 0a100.37 100.37 0 00-18.759 16.56c.473.32.962.6 1.443.9a94.34 94.34 0 0118.655-15.25 3.657 3.657 0 01-1.336-2.21z" fill="#ff8600"/><g data-name="Group 265"><g data-name="Group 261"><g data-name="Group 258"><g data-name="Group 257"><path data-name="Path 147" d="M42.665 15.868a2.623 2.623 0 01-2.1 2.386 2.787 2.787 0 01-.481.047 2.7 2.7 0 01-1.283-.33 2.61 2.61 0 01-1.296-1.795 2.794 2.794 0 01-.047-.481 2.682 2.682 0 01.453-1.481 2.554 2.554 0 011.669-1.085 2.171 2.171 0 01.491-.047 2.608 2.608 0 011.216.3c.085.047.17.094.255.151a2.531 2.531 0 011.084 1.66 2.306 2.306 0 01.039.675z" fill="#ff8600"/></g></g><g data-name="Group 260"><g data-name="Group 259"><path data-name="Path 148" d="M41.071 47.953a3.163 3.163 0 01-2.358 1.056 3.219 3.219 0 01-3.16-2.613 1.1 1.1 0 01-.028-.245 3.164 3.164 0 012.245-3.414 1.868 1.868 0 01.33-.085 3.278 3.278 0 01.613-.066 3.139 3.139 0 011.783.556 2.827 2.827 0 01.566.491 3.061 3.061 0 01.783 1.556 3.194 3.194 0 01-.774 2.764z" fill="#ff8600"/></g></g></g><g data-name="Group 264"><g data-name="Group 263"><g data-name="Group 262"><path data-name="Path 149" d="M18.352 25.507c-.047.076-.1.142-.151.208a2.606 2.606 0 01-1.509.9 2.8 2.8 0 01-.481.047 2.626 2.626 0 01-1.811-.726 2.555 2.555 0 01-.764-1.4 2.612 2.612 0 011.924-3.018.7.7 0 01.151-.038 2.149 2.149 0 01.491-.047 2.6 2.6 0 012.471 1.792 1.872 1.872 0 01.085.33 2.553 2.553 0 01-.406 1.952z" fill="#ff8600"/></g></g></g></g></g></svg>