<svg xmlns="http://www.w3.org/2000/svg" width="253.776" height="63.976" viewBox="0 0 253.776 63.976"><g id="Group_266" data-name="Group 266" transform="translate(-89.294 -213.143)"><g id="Group_253" data-name="Group 253" transform="translate(170.385 225.361)"><g id="Group_251" data-name="Group 251"><path id="Path_95" data-name="Path 95" d="M302.874,266.6l3.4-4.476a10.742,10.742,0,0,0,7.146,2.914c1.638,0,2.519-.625,2.519-1.665v-.069c0-1.007-.724-1.561-3.715-2.325-4.69-1.18-8.31-2.637-8.31-7.634v-.069c0-4.511,3.243-7.772,8.531-7.772a13.044,13.044,0,0,1,9.065,3.226l-3.053,4.753a10.412,10.412,0,0,0-6.17-2.394c-1.48,0-2.2.694-2.2,1.561v.069c0,1.111.755,1.6,3.809,2.36,5.068,1.214,8.216,3.019,8.216,7.564v.069c0,4.962-3.557,7.911-8.908,7.911A14.549,14.549,0,0,1,302.874,266.6Z" transform="translate(-302.874 -245.438)"></path><path id="Path_96" data-name="Path 96" d="M363.057,252.5h-6.61v-5.9h19.328v5.9h-6.61v18.39h-6.107Z" transform="translate(-336.107 -246.117)"></path><path id="Path_97" data-name="Path 97" d="M414.412,246.6h10.419c3.368,0,5.7.971,7.177,2.638a7.962,7.962,0,0,1,1.952,5.655v.069a7.71,7.71,0,0,1-4.533,7.461l5.257,8.466h-7.051l-4.439-7.356h-2.676v7.356h-6.107Zm10.136,11.659c2.078,0,3.274-1.111,3.274-2.88v-.069c0-1.909-1.259-2.88-3.305-2.88h-4v5.829Z" transform="translate(-372.064 -246.117)"></path><path id="Path_98" data-name="Path 98" d="M477.779,246.146h5.886l9.381,24.462H486.5l-1.605-4.337h-8.5l-1.574,4.337H468.4Zm5.351,14.885-2.455-6.9-2.487,6.9Z" transform="translate(-405.553 -245.834)"></path><path id="Path_99" data-name="Path 99" d="M534.884,252.5h-6.611v-5.9H547.6v5.9h-6.611v18.39h-6.107Z" transform="translate(-442.695 -246.117)"></path><path id="Path_100" data-name="Path 100" d="M586.238,246.6H603.96v5.725H592.282v3.678h10.577v5.309H592.282v3.851h11.836v5.725h-17.88Z" transform="translate(-478.652 -246.117)"></path><path id="Path_101" data-name="Path 101" d="M639.145,258.023v-.069c0-7.079,5.036-12.63,11.867-12.63a12.175,12.175,0,0,1,8.941,3.539l-3.589,4.754a7.392,7.392,0,0,0-5.32-2.29c-3.179,0-5.634,2.949-5.634,6.662v.069c0,3.921,2.487,6.731,5.981,6.731a5.791,5.791,0,0,0,3.525-1.007v-2.949h-4.344v-4.926h10.136v10.93a14.1,14.1,0,0,1-9.569,3.747C644.276,270.584,639.145,265.38,639.145,258.023Z" transform="translate(-511.472 -245.324)"></path><path id="Path_102" data-name="Path 102" d="M705.486,261.8l-8.373-15.2h6.956l4.533,8.848,4.565-8.848H720L711.625,261.7v9.194h-6.139Z" transform="translate(-547.431 -246.117)"></path></g><g id="Group_252" data-name="Group 252" transform="translate(0.581 30.974)"><path id="Path_103" data-name="Path 103" d="M304.4,327.764h1.718v6.168H304.4Z" transform="translate(-304.405 -327.438)" fill="#17498a"></path><path id="Path_104" data-name="Path 104" d="M311.646,331.282h1.674v.67a1.769,1.769,0,0,1,1.428-.775,1.561,1.561,0,0,1,1.621,1.753v3.119h-1.674v-2.582c0-.52-.273-.8-.67-.8a.705.705,0,0,0-.705.8v2.582h-1.674Z" transform="translate(-308.897 -329.554)" fill="#17498a"></path><path id="Path_105" data-name="Path 105" d="M326.2,332.768V330.83h-.564v-1.348h.564v-1.207h1.674v1.207h1.11v1.348h-1.11v1.612c0,.335.15.476.458.476a1.47,1.47,0,0,0,.634-.158v1.313a2.392,2.392,0,0,1-1.163.273A1.4,1.4,0,0,1,326.2,332.768Z" transform="translate(-317.576 -327.754)" fill="#17498a"></path><path id="Path_106" data-name="Path 106" d="M335.5,333.687v-.018a2.391,2.391,0,0,1,2.406-2.493,2.346,2.346,0,0,1,2.406,2.608c0,.106,0,.229-.009.344h-3.19a.984.984,0,0,0,1.031.784,1.439,1.439,0,0,0,1.058-.485l.925.767a2.5,2.5,0,0,1-2.071.969A2.4,2.4,0,0,1,335.5,333.687Zm3.243-.414c-.062-.529-.37-.863-.828-.863-.441,0-.74.344-.828.863Z" transform="translate(-323.694 -329.554)" fill="#17498a"></path><path id="Path_107" data-name="Path 107" d="M350.05,331.321h1.674v.96a1.459,1.459,0,0,1,1.507-1.04V333h-.141c-.872,0-1.366.5-1.366,1.6v1.481H350.05Z" transform="translate(-332.72 -329.594)" fill="#17498a"></path><path id="Path_108" data-name="Path 108" d="M359.24,333.687v-.018a2.639,2.639,0,0,1,5.269-.017v.017a2.639,2.639,0,0,1-5.269.018Zm3.639,0v-.018a1.033,1.033,0,0,0-1.013-1.075,1,1,0,0,0-1,1.057v.017a1.033,1.033,0,0,0,1.013,1.075A1,1,0,0,0,362.879,333.687Z" transform="translate(-338.421 -329.554)" fill="#17498a"></path><path id="Path_109" data-name="Path 109" d="M374.973,331.282h1.674v.634a1.749,1.749,0,0,1,1.445-.74,2.233,2.233,0,0,1,2.115,2.467v.018a2.241,2.241,0,0,1-2.106,2.493,1.789,1.789,0,0,1-1.454-.687v1.991h-1.674Zm3.586,2.388v-.017a.978.978,0,1,0-1.947,0v.017a.979.979,0,1,0,1.947,0Z" transform="translate(-348.18 -329.554)" fill="#17498a"></path><path id="Path_110" data-name="Path 110" d="M390.149,333.687v-.018a2.391,2.391,0,0,1,2.406-2.493,2.346,2.346,0,0,1,2.406,2.608c0,.106,0,.229-.009.344h-3.19a.984.984,0,0,0,1.031.784,1.438,1.438,0,0,0,1.057-.485l.925.767a2.5,2.5,0,0,1-2.071.969A2.4,2.4,0,0,1,390.149,333.687Zm3.243-.414c-.062-.529-.37-.863-.828-.863-.441,0-.74.344-.828.863Z" transform="translate(-357.594 -329.554)" fill="#17498a"></path><path id="Path_111" data-name="Path 111" d="M404.7,331.321h1.674v.96a1.459,1.459,0,0,1,1.507-1.04V333h-.141c-.872,0-1.366.5-1.366,1.6v1.481H404.7Z" transform="translate(-366.621 -329.594)" fill="#17498a"></path><path id="Path_112" data-name="Path 112" d="M413.425,334.74v-.017c0-.987.749-1.5,1.868-1.5a3.65,3.65,0,0,1,1.146.185v-.079c0-.494-.308-.776-.952-.776a3.359,3.359,0,0,0-1.313.265l-.344-1.181a4.792,4.792,0,0,1,1.93-.37,2.448,2.448,0,0,1,1.815.581,1.99,1.99,0,0,1,.511,1.516v2.741H416.43v-.494a1.8,1.8,0,0,1-1.4.6A1.447,1.447,0,0,1,413.425,334.74Zm3.031-.361v-.22a1.75,1.75,0,0,0-.652-.123c-.484,0-.767.238-.767.59v.018a.525.525,0,0,0,.59.52A.766.766,0,0,0,416.456,334.379Z" transform="translate(-372.033 -329.612)" fill="#17498a"></path><path id="Path_113" data-name="Path 113" d="M429.625,332.918v.582h-1.674v-6.433h1.674v2.3a1.749,1.749,0,0,1,1.445-.74,2.233,2.233,0,0,1,2.115,2.467v.018a2.241,2.241,0,0,1-2.106,2.493A1.789,1.789,0,0,1,429.625,332.918Zm1.912-1.8V331.1a.978.978,0,1,0-1.947,0v.017a.979.979,0,1,0,1.947,0Z" transform="translate(-381.044 -327.005)" fill="#17498a"></path><path id="Path_114" data-name="Path 114" d="M443.639,327.067h1.745V328.3h-1.745Zm.035,1.666h1.675V333.5h-1.675Z" transform="translate(-390.776 -327.005)" fill="#17498a"></path><path id="Path_115" data-name="Path 115" d="M450.692,327.067h1.675V333.5h-1.675Z" transform="translate(-395.151 -327.005)" fill="#17498a"></path><path id="Path_116" data-name="Path 116" d="M457.562,327.067h1.745V328.3h-1.745Zm.035,1.666h1.674V333.5H457.6Z" transform="translate(-399.412 -327.005)" fill="#17498a"></path><path id="Path_117" data-name="Path 117" d="M464.367,332.768V330.83H463.8v-1.348h.564v-1.207h1.674v1.207h1.11v1.348h-1.11v1.612c0,.335.15.476.458.476a1.47,1.47,0,0,0,.634-.158v1.313a2.392,2.392,0,0,1-1.163.273A1.4,1.4,0,0,1,464.367,332.768Z" transform="translate(-403.284 -327.754)" fill="#17498a"></path><path id="Path_118" data-name="Path 118" d="M473.825,337.243l.52-1.172a1.62,1.62,0,0,0,.732.255.418.418,0,0,0,.388-.194l-1.868-4.679h1.754l.951,2.873.9-2.873h1.718l-1.745,4.653c-.414,1.111-.864,1.551-1.815,1.551A3.082,3.082,0,0,1,473.825,337.243Z" transform="translate(-409.359 -329.727)" fill="#17498a"></path><path id="Path_119" data-name="Path 119" d="M495.361,329.971h-.555v-1.313h.555v-.106a1.657,1.657,0,0,1,.405-1.234,1.632,1.632,0,0,1,1.242-.414,3.649,3.649,0,0,1,1.093.132v1.181a1.973,1.973,0,0,0-.625-.1c-.309,0-.476.141-.476.45v.115h1.093v1.286h-1.066V333.4h-1.665Z" transform="translate(-422.516 -326.905)" fill="#17498a"></path><path id="Path_120" data-name="Path 120" d="M504.111,333.687v-.018a2.639,2.639,0,0,1,5.269-.017v.017a2.639,2.639,0,0,1-5.269.018Zm3.639,0v-.018a1.033,1.033,0,0,0-1.013-1.075,1,1,0,0,0-1,1.057v.017a1.034,1.034,0,0,0,1.013,1.075A1,1,0,0,0,507.75,333.687Z" transform="translate(-428.288 -329.554)" fill="#17498a"></path><path id="Path_121" data-name="Path 121" d="M519.845,331.321h1.674v.96a1.459,1.459,0,0,1,1.507-1.04V333h-.141c-.872,0-1.366.5-1.366,1.6v1.481h-1.674Z" transform="translate(-438.048 -329.594)" fill="#17498a"></path><path id="Path_122" data-name="Path 122" d="M535.693,333.7v-.018a2.477,2.477,0,0,1,2.556-2.485,2.255,2.255,0,0,1,2.035,1.066l-1.137.846a1.027,1.027,0,0,0-.89-.5.989.989,0,0,0-.934,1.057v.017a.989.989,0,0,0,.952,1.084,1.143,1.143,0,0,0,.916-.493l1.119.811a2.365,2.365,0,0,1-2.123,1.093A2.46,2.46,0,0,1,535.693,333.7Z" transform="translate(-447.879 -329.568)" fill="#17498a"></path><path id="Path_123" data-name="Path 123" d="M549.408,331.321h1.674v.96a1.459,1.459,0,0,1,1.507-1.04V333h-.141c-.872,0-1.366.5-1.366,1.6v1.481h-1.674Z" transform="translate(-456.387 -329.594)" fill="#17498a"></path><path id="Path_124" data-name="Path 124" d="M559.34,327.067h1.745V328.3H559.34Zm.035,1.666h1.674V333.5h-1.674Z" transform="translate(-462.548 -327.005)" fill="#17498a"></path><path id="Path_125" data-name="Path 125" d="M565.351,335.463l.625-1.013a3.1,3.1,0,0,0,1.639.546c.291,0,.423-.088.423-.255v-.017c0-.185-.265-.264-.767-.406-.943-.246-1.692-.564-1.692-1.524v-.017c0-1.013.811-1.578,1.912-1.578a3.725,3.725,0,0,1,1.965.555l-.573,1.057a3.232,3.232,0,0,0-1.41-.44c-.255,0-.388.1-.388.229v.018c0,.185.273.273.776.423.943.264,1.692.59,1.692,1.516v.018c0,1.049-.784,1.595-1.947,1.595A3.845,3.845,0,0,1,565.351,335.463Z" transform="translate(-466.277 -329.568)" fill="#17498a"></path><path id="Path_126" data-name="Path 126" d="M578.229,327.067h1.745V328.3h-1.745Zm.035,1.666h1.674V333.5h-1.674Z" transform="translate(-474.265 -327.005)" fill="#17498a"></path><path id="Path_127" data-name="Path 127" d="M584.239,335.463l.626-1.013A3.1,3.1,0,0,0,586.5,335c.291,0,.423-.088.423-.255v-.017c0-.185-.264-.264-.766-.406-.943-.246-1.692-.564-1.692-1.524v-.017c0-1.013.811-1.578,1.912-1.578a3.726,3.726,0,0,1,1.965.555l-.573,1.057a3.231,3.231,0,0,0-1.41-.44c-.256,0-.388.1-.388.229v.018c0,.185.273.273.776.423.943.264,1.692.59,1.692,1.516v.018c0,1.049-.784,1.595-1.947,1.595A3.845,3.845,0,0,1,584.239,335.463Z" transform="translate(-477.993 -329.568)" fill="#17498a"></path><path id="Path_128" data-name="Path 128" d="M603.546,331.282h1.674v.652a1.75,1.75,0,0,1,1.418-.757,1.46,1.46,0,0,1,1.374.775,2.006,2.006,0,0,1,1.6-.775,1.548,1.548,0,0,1,1.63,1.745v3.128h-1.674v-2.591c0-.52-.255-.793-.652-.793s-.687.273-.687.793v2.591h-1.674v-2.591c0-.52-.256-.793-.652-.793s-.678.273-.678.793v2.591h-1.674Z" transform="translate(-489.97 -329.554)" fill="#17498a"></path><path id="Path_129" data-name="Path 129" d="M625.451,334.74v-.017c0-.987.749-1.5,1.868-1.5a3.652,3.652,0,0,1,1.146.185v-.079c0-.494-.309-.776-.951-.776a3.359,3.359,0,0,0-1.313.265l-.343-1.181a4.787,4.787,0,0,1,1.93-.37,2.449,2.449,0,0,1,1.815.581,1.993,1.993,0,0,1,.511,1.516v2.741h-1.657v-.494a1.8,1.8,0,0,1-1.4.6A1.448,1.448,0,0,1,625.451,334.74Zm3.032-.361v-.22a1.754,1.754,0,0,0-.652-.123c-.485,0-.767.238-.767.59v.018a.525.525,0,0,0,.591.52A.766.766,0,0,0,628.483,334.379Z" transform="translate(-503.558 -329.612)" fill="#17498a"></path><path id="Path_130" data-name="Path 130" d="M639.979,331.282h1.674v.67a1.767,1.767,0,0,1,1.427-.775,1.561,1.561,0,0,1,1.621,1.753v3.119h-1.674v-2.582c0-.52-.273-.8-.67-.8a.705.705,0,0,0-.7.8v2.582h-1.674Z" transform="translate(-512.57 -329.554)" fill="#17498a"></path><path id="Path_131" data-name="Path 131" d="M654.063,334.74v-.017c0-.987.749-1.5,1.868-1.5a3.649,3.649,0,0,1,1.145.185v-.079c0-.494-.309-.776-.951-.776a3.359,3.359,0,0,0-1.313.265l-.343-1.181a4.789,4.789,0,0,1,1.93-.37,2.449,2.449,0,0,1,1.815.581,1.993,1.993,0,0,1,.511,1.516v2.741h-1.656v-.494a1.8,1.8,0,0,1-1.4.6A1.448,1.448,0,0,1,654.063,334.74Zm3.032-.361v-.22a1.754,1.754,0,0,0-.652-.123c-.484,0-.767.238-.767.59v.018a.525.525,0,0,0,.59.52A.766.766,0,0,0,657.095,334.379Z" transform="translate(-521.307 -329.612)" fill="#17498a"></path><path id="Path_132" data-name="Path 132" d="M668.259,336.93l.538-1.111a3.287,3.287,0,0,0,1.665.45c.837,0,1.251-.414,1.251-1.172v-.185a1.847,1.847,0,0,1-1.472.714,2.076,2.076,0,0,1-2.114-2.212V333.4a2.078,2.078,0,0,1,2.062-2.22,1.914,1.914,0,0,1,1.5.669v-.564h1.674V334.9a2.541,2.541,0,0,1-.617,1.9,2.833,2.833,0,0,1-2.1.67A5.107,5.107,0,0,1,668.259,336.93Zm3.454-3.516V333.4a.913.913,0,0,0-.969-.917.922.922,0,0,0-.978.925v.018a.975.975,0,0,0,1.947-.009Z" transform="translate(-530.031 -329.554)" fill="#17498a"></path><path id="Path_133" data-name="Path 133" d="M683.768,333.687v-.018a2.391,2.391,0,0,1,2.406-2.493,2.346,2.346,0,0,1,2.405,2.608c0,.106,0,.229-.009.344h-3.19a.984.984,0,0,0,1.031.784,1.44,1.44,0,0,0,1.058-.485l.925.767a2.5,2.5,0,0,1-2.071.969A2.4,2.4,0,0,1,683.768,333.687Zm3.243-.414c-.062-.529-.37-.863-.828-.863-.44,0-.74.344-.828.863Z" transform="translate(-539.734 -329.554)" fill="#17498a"></path><path id="Path_134" data-name="Path 134" d="M698.317,331.282h1.675v.652a1.749,1.749,0,0,1,1.418-.757,1.461,1.461,0,0,1,1.374.775,2,2,0,0,1,1.595-.775,1.548,1.548,0,0,1,1.63,1.745v3.128h-1.674v-2.591c0-.52-.255-.793-.652-.793s-.687.273-.687.793v2.591h-1.675v-2.591c0-.52-.255-.793-.652-.793s-.678.273-.678.793v2.591h-1.675Z" transform="translate(-548.759 -329.554)" fill="#17498a"></path><path id="Path_135" data-name="Path 135" d="M720.339,333.687v-.018a2.391,2.391,0,0,1,2.406-2.493,2.346,2.346,0,0,1,2.406,2.608c0,.106,0,.229-.009.344h-3.19a.985.985,0,0,0,1.031.784,1.439,1.439,0,0,0,1.057-.485l.925.767a2.5,2.5,0,0,1-2.071.969A2.4,2.4,0,0,1,720.339,333.687Zm3.243-.414a.852.852,0,0,0-.828-.863c-.44,0-.74.344-.828.863Z" transform="translate(-562.42 -329.554)" fill="#17498a"></path><path id="Path_136" data-name="Path 136" d="M734.89,331.282h1.674v.67a1.767,1.767,0,0,1,1.428-.775,1.561,1.561,0,0,1,1.621,1.753v3.119h-1.674v-2.582c0-.52-.273-.8-.67-.8a.705.705,0,0,0-.7.8v2.582H734.89Z" transform="translate(-571.446 -329.554)" fill="#17498a"></path><path id="Path_137" data-name="Path 137" d="M749.446,332.768V330.83h-.564v-1.348h.564v-1.207h1.674v1.207h1.11v1.348h-1.11v1.612c0,.335.15.476.458.476a1.47,1.47,0,0,0,.634-.158v1.313a2.392,2.392,0,0,1-1.163.273A1.4,1.4,0,0,1,749.446,332.768Z" transform="translate(-580.126 -327.754)" fill="#17498a"></path></g></g><g id="Group_254" data-name="Group 254" transform="translate(110.173 228.813)"><path id="Path_138" data-name="Path 138" d="M170.456,264.781a81.088,81.088,0,0,0-10.515-5.461c-.123-.047-.236-.1-.358-.151-1.037.688-2.084,1.405-3.141,2.169.707.339,1.415.679,2.113,1.037a86.723,86.723,0,0,1,9.384,5.555q1.344-1.57,2.518-3.131v-.009a.009.009,0,0,0,.009-.009ZM145.2,254.416c-.33.764-.632,1.547-.915,2.339a64.987,64.987,0,0,1,8.309,2.867c.915-.745,1.821-1.462,2.726-2.15A78.578,78.578,0,0,0,145.2,254.416Z" transform="translate(-144.285 -254.416)" fill="#f5851f"></path><path id="Path_139" data-name="Path 139" d="M213.763,287.057l.019.019v-.029A.033.033,0,0,1,213.763,287.057Zm0,0,.019.019v-.029A.033.033,0,0,1,213.763,287.057Zm0,0,.019.019v-.029A.033.033,0,0,1,213.763,287.057Zm0,0,.019.019v-.029A.033.033,0,0,1,213.763,287.057Zm0,0,.019.019v-.029A.033.033,0,0,1,213.763,287.057Zm0,0,.019.019v-.029A.033.033,0,0,1,213.763,287.057Zm0,0,.019.019v-.029A.033.033,0,0,1,213.763,287.057Zm.509-6.366c.009.009,0,.028,0,.038.019-.009.019-.019.028-.028C214.291,280.691,214.282,280.681,214.272,280.691Zm-.509,6.366.019.019v-.029A.033.033,0,0,1,213.763,287.057Zm0,0,.019.019v-.029A.033.033,0,0,1,213.763,287.057Zm0,0,.019.019v-.029A.033.033,0,0,1,213.763,287.057Zm0,0,.019.019v-.029A.033.033,0,0,1,213.763,287.057Zm0,0,.019.019v-.029A.033.033,0,0,1,213.763,287.057Zm0,0,.019.019v-.029A.033.033,0,0,1,213.763,287.057Zm0,0,.019.019v-.029A.033.033,0,0,1,213.763,287.057Zm0,0,.019.019v-.029A.033.033,0,0,1,213.763,287.057Zm0,0,.019.019v-.029A.033.033,0,0,1,213.763,287.057Zm0,0,.019.019v-.029A.033.033,0,0,1,213.763,287.057Z" transform="translate(-187.384 -270.712)" fill="#fff"></path></g><g id="Group_255" data-name="Group 255" transform="translate(136.344 238.788)"><path id="Path_140" data-name="Path 140" d="M214.272,280.691c.009.009,0,.028,0,.038.019-.009.019-.019.028-.028C214.291,280.691,214.282,280.681,214.272,280.691Zm-.509,6.366.019.019v-.029A.033.033,0,0,1,213.763,287.057Z" transform="translate(-213.555 -280.687)" fill="#f5851f"></path><path id="Path_141" data-name="Path 141" d="M213.424,287.7l.019.019v-.028A.033.033,0,0,1,213.424,287.7Zm-.208-5.979v.009a.009.009,0,0,0,.009-.009Zm.208,5.979.019.019v-.028A.033.033,0,0,1,213.424,287.7Zm-.208-5.979v.009a.009.009,0,0,0,.009-.009Zm.208,5.979.019.019v-.028A.033.033,0,0,1,213.424,287.7Zm-.208-5.979v.009a.009.009,0,0,0,.009-.009Zm.208,5.979.019.019v-.028A.033.033,0,0,1,213.424,287.7Zm-.208-5.979v.009a.009.009,0,0,0,.009-.009Zm.208,5.979.019.019v-.028A.033.033,0,0,1,213.424,287.7Zm-.208-5.979v.009a.009.009,0,0,0,.009-.009Zm.208,5.979.019.019v-.028A.033.033,0,0,1,213.424,287.7Zm0,0,.019.019v-.028A.033.033,0,0,1,213.424,287.7Zm0,0,.019.019v-.028A.033.033,0,0,1,213.424,287.7Zm0,0,.019.019v-.028A.033.033,0,0,1,213.424,287.7Zm0,0,.019.019v-.028A.033.033,0,0,1,213.424,287.7Zm0,0,.019.019v-.028A.033.033,0,0,1,213.424,287.7Zm0,0,.019.019v-.028A.033.033,0,0,1,213.424,287.7Zm0,0,.019.019v-.028A.033.033,0,0,1,213.424,287.7Zm0,0,.019.019v-.028A.033.033,0,0,1,213.424,287.7Zm0,0,.019.019v-.028A.033.033,0,0,1,213.424,287.7Zm0,0,.019.019v-.028A.033.033,0,0,1,213.424,287.7Zm0,0,.019.019v-.028A.033.033,0,0,1,213.424,287.7Zm-.208-5.979v.009a.009.009,0,0,0,.009-.009Zm.208,5.979.019.019v-.028A.033.033,0,0,1,213.424,287.7Zm0,0,.019.019v-.028A.033.033,0,0,1,213.424,287.7Zm0,0,.019.019v-.028A.033.033,0,0,1,213.424,287.7Zm0,0,.019.019v-.028A.033.033,0,0,1,213.424,287.7Zm0,0,.019.019v-.028A.033.033,0,0,1,213.424,287.7Zm0,0,.019.019v-.028A.033.033,0,0,1,213.424,287.7Zm0,0,.019.019v-.028A.033.033,0,0,1,213.424,287.7Zm0,0,.019.019v-.028A.033.033,0,0,1,213.424,287.7Zm0,0,.019.019v-.028A.033.033,0,0,1,213.424,287.7Zm0,0,.019.019v-.028A.033.033,0,0,1,213.424,287.7Zm0,0,.019.019v-.028A.033.033,0,0,1,213.424,287.7Zm0,0,.019.019v-.028A.033.033,0,0,1,213.424,287.7Zm0,0,.019.019v-.028A.033.033,0,0,1,213.424,287.7Zm-.208-5.979v.009a.009.009,0,0,0,.009-.009Zm.208,5.979.019.019v-.028A.033.033,0,0,1,213.424,287.7Zm-.208-5.979v.009a.009.009,0,0,0,.009-.009Z" transform="translate(-213.216 -281.325)" fill="#fff"></path></g><g id="Group_256" data-name="Group 256" transform="translate(137.061 238.788)"><path id="Path_142" data-name="Path 142" d="M215.1,280.691c.009.009,0,.028,0,.038.019-.009.019-.019.028-.028C215.123,280.691,215.113,280.681,215.1,280.691Zm0,0c.009.009,0,.028,0,.038.019-.009.019-.019.028-.028C215.123,280.691,215.113,280.681,215.1,280.691Zm0,0c.009.009,0,.028,0,.038.019-.009.019-.019.028-.028C215.123,280.691,215.113,280.681,215.1,280.691Zm0,0c.009.009,0,.028,0,.038.019-.009.019-.019.028-.028C215.123,280.691,215.113,280.681,215.1,280.691Zm0,0c.009.009,0,.028,0,.038.019-.009.019-.019.028-.028C215.123,280.691,215.113,280.681,215.1,280.691Zm0,0c.009.009,0,.028,0,.038.019-.009.019-.019.028-.028C215.123,280.691,215.113,280.681,215.1,280.691Zm0,0c.009.009,0,.028,0,.038.019-.009.019-.019.028-.028C215.123,280.691,215.113,280.681,215.1,280.691Zm0,0c.009.009,0,.028,0,.038.019-.009.019-.019.028-.028C215.123,280.691,215.113,280.681,215.1,280.691Zm0,0c.009.009,0,.028,0,.038.019-.009.019-.019.028-.028C215.123,280.691,215.113,280.681,215.1,280.691Zm0,0c.009.009,0,.028,0,.038.019-.009.019-.019.028-.028C215.123,280.691,215.113,280.681,215.1,280.691Zm0,0c.009.009,0,.028,0,.038.019-.009.019-.019.028-.028C215.123,280.691,215.113,280.681,215.1,280.691Zm0,0c.009.009,0,.028,0,.038.019-.009.019-.019.028-.028C215.123,280.691,215.113,280.681,215.1,280.691Zm0,0c.009.009,0,.028,0,.038.019-.009.019-.019.028-.028C215.123,280.691,215.113,280.681,215.1,280.691Zm0,0c.009.009,0,.028,0,.038.019-.009.019-.019.028-.028C215.123,280.691,215.113,280.681,215.1,280.691Zm0,0c.009.009,0,.028,0,.038.019-.009.019-.019.028-.028C215.123,280.691,215.113,280.681,215.1,280.691Zm0,0c.009.009,0,.028,0,.038.019-.009.019-.019.028-.028C215.123,280.691,215.113,280.681,215.1,280.691Zm0,0c.009.009,0,.028,0,.038.019-.009.019-.019.028-.028C215.123,280.691,215.113,280.681,215.1,280.691Zm0,0c.009.009,0,.028,0,.038.019-.009.019-.019.028-.028C215.123,280.691,215.113,280.681,215.1,280.691Zm0,0c.009.009,0,.028,0,.038.019-.009.019-.019.028-.028C215.123,280.691,215.113,280.681,215.1,280.691Zm0,0c.009.009,0,.028,0,.038.019-.009.019-.019.028-.028C215.123,280.691,215.113,280.681,215.1,280.691Zm0,0c.009.009,0,.028,0,.038.019-.009.019-.019.028-.028C215.123,280.691,215.113,280.681,215.1,280.691Zm0,0c.009.009,0,.028,0,.038.019-.009.019-.019.028-.028C215.123,280.691,215.113,280.681,215.1,280.691Zm0,0c.009.009,0,.028,0,.038.019-.009.019-.019.028-.028C215.123,280.691,215.113,280.681,215.1,280.691Zm0,0c.009.009,0,.028,0,.038.019-.009.019-.019.028-.028C215.123,280.691,215.113,280.681,215.1,280.691Zm0,0c.009.009,0,.028,0,.038.019-.009.019-.019.028-.028C215.123,280.691,215.113,280.681,215.1,280.691Zm0,0c.009.009,0,.028,0,.038.019-.009.019-.019.028-.028C215.123,280.691,215.113,280.681,215.1,280.691Zm0,0c.009.009,0,.028,0,.038.019-.009.019-.019.028-.028C215.123,280.691,215.113,280.681,215.1,280.691Zm0,0c.009.009,0,.028,0,.038.019-.009.019-.019.028-.028C215.123,280.691,215.113,280.681,215.1,280.691Zm0,0c.009.009,0,.028,0,.038.019-.009.019-.019.028-.028C215.123,280.691,215.113,280.681,215.1,280.691Zm0,0c.009.009,0,.028,0,.038.019-.009.019-.019.028-.028C215.123,280.691,215.113,280.681,215.1,280.691Zm0,0c.009.009,0,.028,0,.038.019-.009.019-.019.028-.028C215.123,280.691,215.113,280.681,215.1,280.691Zm0,0c.009.009,0,.028,0,.038.019-.009.019-.019.028-.028C215.123,280.691,215.113,280.681,215.1,280.691Zm0,0c.009.009,0,.028,0,.038.019-.009.019-.019.028-.028C215.123,280.691,215.113,280.681,215.1,280.691Zm0,0c.009.009,0,.028,0,.038.019-.009.019-.019.028-.028C215.123,280.691,215.113,280.681,215.1,280.691Zm0,0c.009.009,0,.028,0,.038.019-.009.019-.019.028-.028C215.123,280.691,215.113,280.681,215.1,280.691Zm0,0c.009.009,0,.028,0,.038.019-.009.019-.019.028-.028C215.123,280.691,215.113,280.681,215.1,280.691Zm0,0c.009.009,0,.028,0,.038.019-.009.019-.019.028-.028C215.123,280.691,215.113,280.681,215.1,280.691Zm0,0c.009.009,0,.028,0,.038.019-.009.019-.019.028-.028C215.123,280.691,215.113,280.681,215.1,280.691Zm0,0c.009.009,0,.028,0,.038.019-.009.019-.019.028-.028C215.123,280.691,215.113,280.681,215.1,280.691Zm0,0c.009.009,0,.028,0,.038.019-.009.019-.019.028-.028C215.123,280.691,215.113,280.681,215.1,280.691Zm0,0c.009.009,0,.028,0,.038.019-.009.019-.019.028-.028C215.123,280.691,215.113,280.681,215.1,280.691Zm0,0c.009.009,0,.028,0,.038.019-.009.019-.019.028-.028C215.123,280.691,215.113,280.681,215.1,280.691Zm0,0c.009.009,0,.028,0,.038.019-.009.019-.019.028-.028C215.123,280.691,215.113,280.681,215.1,280.691Zm0,0c.009.009,0,.028,0,.038.019-.009.019-.019.028-.028C215.123,280.691,215.113,280.681,215.1,280.691Z" transform="translate(-215.104 -280.687)" fill="#fff"></path></g><path id="Path_143" data-name="Path 143" d="M213.011,264.891v.443c-.019,1.311-.066,2.622-.17,3.933-.038.462-.076.915-.132,1.377-.009.142-.028.283-.047.434s-.028.292-.038.434a52.635,52.635,0,0,1-1.933,9.157,39.048,39.048,0,0,1-4.754-.651,51.766,51.766,0,0,0,2.914-11.072c.028-.17.047-.339.076-.509V268.4c.019-.123.038-.254.057-.377.009-.076.019-.142.028-.217a1.144,1.144,0,0,1,.019-.179c.019-.142.038-.283.047-.434.17-1.434.283-2.876.321-4.329a1.059,1.059,0,0,0,.009-.17c0-.076.009-.151.009-.236v-.368c.019-.009.019-.019.028-.028-.009-.009-.019-.019-.028-.009.009-.189.009-.387.009-.575a39.7,39.7,0,0,0-1.179-9.941.92.92,0,0,0-.047-.151c.566-.2,1.1-.368,1.622-.5.4-.1.783-.189,1.141-.245.038.113.066.217.1.33a42.5,42.5,0,0,1,1.321,5.847,4.293,4.293,0,0,1,.094.594q.057.283.085.566c.2,1.49.33,2.99.387,4.489.019.179.019.358.028.538s.009.387.009.575c.009.292.019.575.009.868C213.011,264.589,213.011,264.74,213.011,264.891Z" transform="translate(-72.357 -23.261)" fill="#f5851f"></path><path id="Path_144" data-name="Path 144" d="M191.335,284.945c-.038,1.141-.141,2.3-.283,3.48a16.978,16.978,0,0,1-.1.792.325.325,0,0,1-.019.161,96.066,96.066,0,0,1-9.223,8.752c-.424.349-.839.7-1.273,1.037a1.371,1.371,0,0,1-.179.151l-2.235-.717.208-.179c.773-.651,1.528-1.311,2.273-1.98a96.319,96.319,0,0,0,8.488-8.63,2.792,2.792,0,0,0,.226-.264c.085-.095.16-.179.236-.274C190.1,286.5,190.731,285.728,191.335,284.945Z" transform="translate(-55.038 -44.541)" fill="#f5851f"></path><path id="Path_145" data-name="Path 145" d="M154.563,330.335c-.076.047-.161.1-.236.16a79.425,79.425,0,0,1-8.639,5.432c-.358.189-.707.377-1.066.547a1.405,1.405,0,0,1-.17.085l-.688-1.386c.076-.038.16-.076.236-.123.481-.255.971-.519,1.452-.792a69.783,69.783,0,0,0,6.989-4.612c.085-.057.16-.123.254-.189Z" transform="translate(-33.789 -72.153)" fill="#f5851f"></path><path id="Path_146" data-name="Path 146" d="M125.7,229.54A100.37,100.37,0,0,0,106.938,246.1c.473.32.962.6,1.443.9a94.34,94.34,0,0,1,18.655-15.25A3.657,3.657,0,0,1,125.7,229.54Zm-19.5,11.327a3.74,3.74,0,0,1-2.754-.557c-.192,1.01-.392,2.014-.519,3.028,1.094.837,2.226,1.616,3.4,2.377.17-.189.33-.377.5-.566.073-1.562.208-3.115.424-4.668A3.558,3.558,0,0,1,106.193,240.867Zm19.5-11.327A100.37,100.37,0,0,0,106.938,246.1c.473.32.962.6,1.443.9a94.34,94.34,0,0,1,18.655-15.25A3.657,3.657,0,0,1,125.7,229.54Zm0,0A100.37,100.37,0,0,0,106.938,246.1c.473.32.962.6,1.443.9a94.34,94.34,0,0,1,18.655-15.25A3.657,3.657,0,0,1,125.7,229.54Zm-19.5,11.327a3.74,3.74,0,0,1-2.754-.557c-.192,1.01-.392,2.014-.519,3.028,1.094.837,2.226,1.616,3.4,2.377.17-.189.33-.377.5-.566.073-1.562.208-3.115.424-4.668A3.558,3.558,0,0,1,106.193,240.867Zm19.5-11.327A100.37,100.37,0,0,0,106.938,246.1c.473.32.962.6,1.443.9a94.34,94.34,0,0,1,18.655-15.25A3.657,3.657,0,0,1,125.7,229.54Zm0,0A100.37,100.37,0,0,0,106.938,246.1c.473.32.962.6,1.443.9a94.34,94.34,0,0,1,18.655-15.25A3.657,3.657,0,0,1,125.7,229.54Zm-19.5,11.327a3.74,3.74,0,0,1-2.754-.557c-.192,1.01-.392,2.014-.519,3.028,1.094.837,2.226,1.616,3.4,2.377.17-.189.33-.377.5-.566.073-1.562.208-3.115.424-4.668A3.558,3.558,0,0,1,106.193,240.867Zm0,0a3.74,3.74,0,0,1-2.754-.557c-.192,1.01-.392,2.014-.519,3.028,1.094.837,2.226,1.616,3.4,2.377.17-.189.33-.377.5-.566.073-1.562.208-3.115.424-4.668A3.558,3.558,0,0,1,106.193,240.867Zm19.5-11.327A100.37,100.37,0,0,0,106.938,246.1c.473.32.962.6,1.443.9a94.34,94.34,0,0,1,18.655-15.25A3.657,3.657,0,0,1,125.7,229.54Zm0,0A100.37,100.37,0,0,0,106.938,246.1c.473.32.962.6,1.443.9a94.34,94.34,0,0,1,18.655-15.25A3.657,3.657,0,0,1,125.7,229.54Zm-19.5,11.327a3.74,3.74,0,0,1-2.754-.557c-.192,1.01-.392,2.014-.519,3.028,1.094.837,2.226,1.616,3.4,2.377.17-.189.33-.377.5-.566.073-1.562.208-3.115.424-4.668A3.558,3.558,0,0,1,106.193,240.867Zm0,0a3.74,3.74,0,0,1-2.754-.557c-.192,1.01-.392,2.014-.519,3.028,1.094.837,2.226,1.616,3.4,2.377.17-.189.33-.377.5-.566.073-1.562.208-3.115.424-4.668A3.558,3.558,0,0,1,106.193,240.867Zm19.5-11.327A100.37,100.37,0,0,0,106.938,246.1c.473.32.962.6,1.443.9a94.34,94.34,0,0,1,18.655-15.25A3.657,3.657,0,0,1,125.7,229.54Zm0,0A100.37,100.37,0,0,0,106.938,246.1c.473.32.962.6,1.443.9a94.34,94.34,0,0,1,18.655-15.25A3.657,3.657,0,0,1,125.7,229.54Zm-19.5,11.327a3.74,3.74,0,0,1-2.754-.557c-.192,1.01-.392,2.014-.519,3.028,1.094.837,2.226,1.616,3.4,2.377.17-.189.33-.377.5-.566.073-1.562.208-3.115.424-4.668A3.558,3.558,0,0,1,106.193,240.867Zm0,0a3.74,3.74,0,0,1-2.754-.557c-.192,1.01-.392,2.014-.519,3.028,1.094.837,2.226,1.616,3.4,2.377.17-.189.33-.377.5-.566.073-1.562.208-3.115.424-4.668A3.558,3.558,0,0,1,106.193,240.867Zm19.5-11.327A100.37,100.37,0,0,0,106.938,246.1c.473.32.962.6,1.443.9a94.34,94.34,0,0,1,18.655-15.25A3.657,3.657,0,0,1,125.7,229.54Zm0,0A100.37,100.37,0,0,0,106.938,246.1c.473.32.962.6,1.443.9a94.34,94.34,0,0,1,18.655-15.25A3.657,3.657,0,0,1,125.7,229.54Zm-19.5,11.327a3.74,3.74,0,0,1-2.754-.557c-.192,1.01-.392,2.014-.519,3.028,1.094.837,2.226,1.616,3.4,2.377.17-.189.33-.377.5-.566.073-1.562.208-3.115.424-4.668A3.558,3.558,0,0,1,106.193,240.867Zm0,0a3.74,3.74,0,0,1-2.754-.557c-.192,1.01-.392,2.014-.519,3.028,1.094.837,2.226,1.616,3.4,2.377.17-.189.33-.377.5-.566.073-1.562.208-3.115.424-4.668A3.558,3.558,0,0,1,106.193,240.867Zm19.5-11.327A100.37,100.37,0,0,0,106.938,246.1c.473.32.962.6,1.443.9a94.34,94.34,0,0,1,18.655-15.25A3.657,3.657,0,0,1,125.7,229.54Zm0,0A100.37,100.37,0,0,0,106.938,246.1c.473.32.962.6,1.443.9a94.34,94.34,0,0,1,18.655-15.25A3.657,3.657,0,0,1,125.7,229.54Zm-18.447,10.94a3.687,3.687,0,0,1-3.81-.17c-.192,1.01-.392,2.014-.519,3.028,1.094.837,2.226,1.616,3.4,2.377.17-.189.33-.377.5-.566C106.9,243.586,107.033,242.033,107.249,240.48Zm43.685-8.167c-17.513-37.759-73.61-14.511-59.34,24.578C108.494,296.562,167.074,272.264,150.934,232.312Zm-1.981,16.693c-.043.321-.114.656-.179.971a33.866,33.866,0,0,0-7.423-7.384c-.031,1.76-.139,3.613-.349,5.375,12.039,11.085.852,11.418-9.054,9.177a4.368,4.368,0,0,1-.4,4.272,35.083,35.083,0,0,0,11.1,1.283,28.494,28.494,0,0,1-11.883,8.431,31.514,31.514,0,0,0,5.347-8.045,47.988,47.988,0,0,1-4.989-1.047c-11.086,20.512-23.785,5.811-24.219-11.063-1.53-.982-3-2.039-4.452-3.14a40.249,40.249,0,0,0,2.98,18.758h.009a20.97,20.97,0,0,0,1.641,3.037,25.725,25.725,0,0,1-3.82-2.443,14.885,14.885,0,0,0,1.669-.434l-.66-1.434a9.677,9.677,0,0,1-2.848.368,27.4,27.4,0,0,1-2.829-2.914c.151-2.714,1.728-5.322,3.244-7.677-.076-.783-.132-1.584-.161-2.4a31.093,31.093,0,0,0-4.414,8.356,28.717,28.717,0,0,1-4.385-24.521c6.722,11.075,19.247,17.328,30.774,22.314A4.3,4.3,0,0,1,125.5,255.4a82.2,82.2,0,0,1-19.635-9.148c-9.992-5.656-19.742-19.284-.161-16.08q.467-1.117.962-2.207a26.18,26.18,0,0,0-9.8.047,28.7,28.7,0,0,1,20.418-12.345c-6.21,4.224-9.664,10.978-12.044,17.787a3.709,3.709,0,0,1,3.1,1.311c.017-.088.045-.166.066-.254,1.946-12.991,18.106-28.662,25.964-10.629.858-.368,1.679-.679,2.48-.934a24.963,24.963,0,0,0-2.348-3.886,28.123,28.123,0,0,1,5.4,3.867,27.872,27.872,0,0,0-8.2,3,3.642,3.642,0,0,1,1.368,2.546c5.8-3.055,12.376-2.823,7.686,5.216a45.528,45.528,0,0,1,.491,4.6,30.194,30.194,0,0,0,4.4-8.168A28.729,28.729,0,0,1,148.953,249.006ZM125.7,229.54A100.37,100.37,0,0,0,106.938,246.1c.473.32.962.6,1.443.9a94.34,94.34,0,0,1,18.655-15.25A3.657,3.657,0,0,1,125.7,229.54Zm-18.447,10.94a3.687,3.687,0,0,1-3.81-.17c-.192,1.01-.392,2.014-.519,3.028,1.094.837,2.226,1.616,3.4,2.377.17-.189.33-.377.5-.566C106.9,243.586,107.033,242.033,107.249,240.48Zm-1.056.387a3.74,3.74,0,0,1-2.754-.557c-.192,1.01-.392,2.014-.519,3.028,1.094.837,2.226,1.616,3.4,2.377.17-.189.33-.377.5-.566.073-1.562.208-3.115.424-4.668A3.558,3.558,0,0,1,106.193,240.867Zm19.5-11.327A100.37,100.37,0,0,0,106.938,246.1c.473.32.962.6,1.443.9a94.34,94.34,0,0,1,18.655-15.25A3.657,3.657,0,0,1,125.7,229.54Zm0,0A100.37,100.37,0,0,0,106.938,246.1c.473.32.962.6,1.443.9a94.34,94.34,0,0,1,18.655-15.25A3.657,3.657,0,0,1,125.7,229.54Zm-19.5,11.327a3.74,3.74,0,0,1-2.754-.557c-.192,1.01-.392,2.014-.519,3.028,1.094.837,2.226,1.616,3.4,2.377.17-.189.33-.377.5-.566.073-1.562.208-3.115.424-4.668A3.558,3.558,0,0,1,106.193,240.867Zm0,0a3.74,3.74,0,0,1-2.754-.557c-.192,1.01-.392,2.014-.519,3.028,1.094.837,2.226,1.616,3.4,2.377.17-.189.33-.377.5-.566.073-1.562.208-3.115.424-4.668A3.558,3.558,0,0,1,106.193,240.867Zm19.5-11.327A100.37,100.37,0,0,0,106.938,246.1c.473.32.962.6,1.443.9a94.34,94.34,0,0,1,18.655-15.25A3.657,3.657,0,0,1,125.7,229.54Zm0,0A100.37,100.37,0,0,0,106.938,246.1c.473.32.962.6,1.443.9a94.34,94.34,0,0,1,18.655-15.25A3.657,3.657,0,0,1,125.7,229.54Zm-19.5,11.327a3.74,3.74,0,0,1-2.754-.557c-.192,1.01-.392,2.014-.519,3.028,1.094.837,2.226,1.616,3.4,2.377.17-.189.33-.377.5-.566.073-1.562.208-3.115.424-4.668A3.558,3.558,0,0,1,106.193,240.867Zm0,0a3.74,3.74,0,0,1-2.754-.557c-.192,1.01-.392,2.014-.519,3.028,1.094.837,2.226,1.616,3.4,2.377.17-.189.33-.377.5-.566.073-1.562.208-3.115.424-4.668A3.558,3.558,0,0,1,106.193,240.867Zm19.5-11.327A100.37,100.37,0,0,0,106.938,246.1c.473.32.962.6,1.443.9a94.34,94.34,0,0,1,18.655-15.25A3.657,3.657,0,0,1,125.7,229.54Zm0,0A100.37,100.37,0,0,0,106.938,246.1c.473.32.962.6,1.443.9a94.34,94.34,0,0,1,18.655-15.25A3.657,3.657,0,0,1,125.7,229.54Zm-19.5,11.327a3.74,3.74,0,0,1-2.754-.557c-.192,1.01-.392,2.014-.519,3.028,1.094.837,2.226,1.616,3.4,2.377.17-.189.33-.377.5-.566.073-1.562.208-3.115.424-4.668A3.558,3.558,0,0,1,106.193,240.867Zm0,0a3.74,3.74,0,0,1-2.754-.557c-.192,1.01-.392,2.014-.519,3.028,1.094.837,2.226,1.616,3.4,2.377.17-.189.33-.377.5-.566.073-1.562.208-3.115.424-4.668A3.558,3.558,0,0,1,106.193,240.867Zm19.5-11.327A100.37,100.37,0,0,0,106.938,246.1c.473.32.962.6,1.443.9a94.34,94.34,0,0,1,18.655-15.25A3.657,3.657,0,0,1,125.7,229.54Zm0,0A100.37,100.37,0,0,0,106.938,246.1c.473.32.962.6,1.443.9a94.34,94.34,0,0,1,18.655-15.25A3.657,3.657,0,0,1,125.7,229.54Zm-19.5,11.327a3.74,3.74,0,0,1-2.754-.557c-.192,1.01-.392,2.014-.519,3.028,1.094.837,2.226,1.616,3.4,2.377.17-.189.33-.377.5-.566.073-1.562.208-3.115.424-4.668A3.558,3.558,0,0,1,106.193,240.867Zm0,0a3.74,3.74,0,0,1-2.754-.557c-.192,1.01-.392,2.014-.519,3.028,1.094.837,2.226,1.616,3.4,2.377.17-.189.33-.377.5-.566.073-1.562.208-3.115.424-4.668A3.558,3.558,0,0,1,106.193,240.867Zm19.5-11.327A100.37,100.37,0,0,0,106.938,246.1c.473.32.962.6,1.443.9a94.34,94.34,0,0,1,18.655-15.25A3.657,3.657,0,0,1,125.7,229.54Zm0,0A100.37,100.37,0,0,0,106.938,246.1c.473.32.962.6,1.443.9a94.34,94.34,0,0,1,18.655-15.25A3.657,3.657,0,0,1,125.7,229.54Zm-19.5,11.327a3.74,3.74,0,0,1-2.754-.557c-.192,1.01-.392,2.014-.519,3.028,1.094.837,2.226,1.616,3.4,2.377.17-.189.33-.377.5-.566.073-1.562.208-3.115.424-4.668A3.558,3.558,0,0,1,106.193,240.867Zm19.5-11.327A100.37,100.37,0,0,0,106.938,246.1c.473.32.962.6,1.443.9a94.34,94.34,0,0,1,18.655-15.25A3.657,3.657,0,0,1,125.7,229.54Zm0,0A100.37,100.37,0,0,0,106.938,246.1c.473.32.962.6,1.443.9a94.34,94.34,0,0,1,18.655-15.25A3.657,3.657,0,0,1,125.7,229.54Z" transform="translate(0 0)" fill="#ff8600"></path><g id="Group_265" data-name="Group 265" transform="translate(102.882 226.229)"><g id="Group_261" data-name="Group 261" transform="translate(21.913)"><g id="Group_258" data-name="Group 258" transform="translate(1.958)"><g id="Group_257" data-name="Group 257"><path id="Path_147" data-name="Path 147" d="M193.16,250.392a2.623,2.623,0,0,1-2.1,2.386,2.787,2.787,0,0,1-.481.047,2.7,2.7,0,0,1-1.283-.33A2.61,2.61,0,0,1,188,250.7a2.794,2.794,0,0,1-.047-.481,2.682,2.682,0,0,1,.453-1.481,2.554,2.554,0,0,1,1.669-1.085,2.171,2.171,0,0,1,.491-.047,2.608,2.608,0,0,1,1.216.3c.085.047.17.094.255.151a2.531,2.531,0,0,1,1.084,1.66A2.306,2.306,0,0,1,193.16,250.392Z" transform="translate(-187.954 -247.61)" fill="#ff8600"></path></g></g><g id="Group_260" data-name="Group 260" transform="translate(0 29.501)"><g id="Group_259" data-name="Group 259"><path id="Path_148" data-name="Path 148" d="M188.368,330.676a3.163,3.163,0,0,1-2.358,1.056,3.219,3.219,0,0,1-3.16-2.613,1.1,1.1,0,0,1-.028-.245,3.164,3.164,0,0,1,2.245-3.414,1.868,1.868,0,0,1,.33-.085,3.278,3.278,0,0,1,.613-.066,3.139,3.139,0,0,1,1.783.556,2.827,2.827,0,0,1,.566.491,3.061,3.061,0,0,1,.783,1.556A3.194,3.194,0,0,1,188.368,330.676Z" transform="translate(-182.798 -325.31)" fill="#ff8600"></path></g></g></g><g id="Group_264" data-name="Group 264" transform="translate(0 8.347)"><g id="Group_263" data-name="Group 263"><g id="Group_262" data-name="Group 262"><path id="Path_149" data-name="Path 149" d="M129.846,273.668c-.047.076-.1.142-.151.208a2.606,2.606,0,0,1-1.509.9,2.8,2.8,0,0,1-.481.047,2.626,2.626,0,0,1-1.811-.726,2.555,2.555,0,0,1-.764-1.4,2.612,2.612,0,0,1,1.924-3.018.7.7,0,0,1,.151-.038,2.149,2.149,0,0,1,.491-.047,2.6,2.6,0,0,1,2.471,1.792,1.872,1.872,0,0,1,.085.33A2.553,2.553,0,0,1,129.846,273.668Z" transform="translate(-125.082 -269.594)" fill="#ff8600"></path></g></g></g></g></g></svg>