<svg xmlns="http://www.w3.org/2000/svg" width="64" height="64"><g data-name="Group 254"><path data-name="Path 138" d="M47.05 26.035a81.088 81.088 0 00-10.515-5.461c-.123-.047-.236-.1-.358-.151a94.905 94.905 0 00-3.141 2.169c.707.339 1.415.679 2.113 1.037a86.723 86.723 0 019.384 5.555q1.344-1.57 2.518-3.131v-.009a.009.009 0 00.009-.009zM21.794 15.67a38.97 38.97 0 00-.915 2.339 64.987 64.987 0 018.309 2.867 104.19 104.19 0 012.726-2.15 78.578 78.578 0 00-10.12-3.056z" fill="#f5851f"/><path data-name="Path 139" d="M47.258 32.015l.019.019v-.029a.033.033 0 01-.019.01zm0 0l.019.019v-.029a.033.033 0 01-.019.01zm0 0l.019.019v-.029a.033.033 0 01-.019.01zm0 0l.019.019v-.029a.033.033 0 01-.019.01zm0 0l.019.019v-.029a.033.033 0 01-.019.01zm0 0l.019.019v-.029a.033.033 0 01-.019.01zm0 0l.019.019v-.029a.033.033 0 01-.019.01zm.509-6.366c.009.009 0 .028 0 .038.019-.009.019-.019.028-.028-.009-.01-.018-.02-.028-.01zm-.509 6.366l.019.019v-.029a.033.033 0 01-.019.01zm0 0l.019.019v-.029a.033.033 0 01-.019.01zm0 0l.019.019v-.029a.033.033 0 01-.019.01zm0 0l.019.019v-.029a.033.033 0 01-.019.01zm0 0l.019.019v-.029a.033.033 0 01-.019.01zm0 0l.019.019v-.029a.033.033 0 01-.019.01zm0 0l.019.019v-.029a.033.033 0 01-.019.01zm0 0l.019.019v-.029a.033.033 0 01-.019.01zm0 0l.019.019v-.029a.033.033 0 01-.019.01zm0 0l.019.019v-.029a.033.033 0 01-.019.01z" fill="#fff"/></g><g data-name="Group 255"><path data-name="Path 140" d="M47.767 25.649c.009.009 0 .028 0 .038.019-.009.019-.019.028-.028-.009-.01-.018-.02-.028-.01zm-.509 6.366l.019.019v-.029a.033.033 0 01-.019.01z" fill="#f5851f"/><path data-name="Path 141" d="M47.258 32.02l.019.019v-.028a.033.033 0 01-.019.009zm-.208-5.979v.009a.009.009 0 00.009-.009zm.208 5.979l.019.019v-.028a.033.033 0 01-.019.009zm-.208-5.979v.009a.009.009 0 00.009-.009zm.208 5.979l.019.019v-.028a.033.033 0 01-.019.009zm-.208-5.979v.009a.009.009 0 00.009-.009zm.208 5.979l.019.019v-.028a.033.033 0 01-.019.009zm-.208-5.979v.009a.009.009 0 00.009-.009zm.208 5.979l.019.019v-.028a.033.033 0 01-.019.009zm-.208-5.979v.009a.009.009 0 00.009-.009zm.208 5.979l.019.019v-.028a.033.033 0 01-.019.009zm0 0l.019.019v-.028a.033.033 0 01-.019.009zm0 0l.019.019v-.028a.033.033 0 01-.019.009zm0 0l.019.019v-.028a.033.033 0 01-.019.009zm0 0l.019.019v-.028a.033.033 0 01-.019.009zm0 0l.019.019v-.028a.033.033 0 01-.019.009zm0 0l.019.019v-.028a.033.033 0 01-.019.009zm0 0l.019.019v-.028a.033.033 0 01-.019.009zm0 0l.019.019v-.028a.033.033 0 01-.019.009zm0 0l.019.019v-.028a.033.033 0 01-.019.009zm0 0l.019.019v-.028a.033.033 0 01-.019.009zm0 0l.019.019v-.028a.033.033 0 01-.019.009zm-.208-5.979v.009a.009.009 0 00.009-.009zm.208 5.979l.019.019v-.028a.033.033 0 01-.019.009zm0 0l.019.019v-.028a.033.033 0 01-.019.009zm0 0l.019.019v-.028a.033.033 0 01-.019.009zm0 0l.019.019v-.028a.033.033 0 01-.019.009zm0 0l.019.019v-.028a.033.033 0 01-.019.009zm0 0l.019.019v-.028a.033.033 0 01-.019.009zm0 0l.019.019v-.028a.033.033 0 01-.019.009zm0 0l.019.019v-.028a.033.033 0 01-.019.009zm0 0l.019.019v-.028a.033.033 0 01-.019.009zm0 0l.019.019v-.028a.033.033 0 01-.019.009zm0 0l.019.019v-.028a.033.033 0 01-.019.009zm0 0l.019.019v-.028a.033.033 0 01-.019.009zm0 0l.019.019v-.028a.033.033 0 01-.019.009zm-.208-5.979v.009a.009.009 0 00.009-.009zm.208 5.979l.019.019v-.028a.033.033 0 01-.019.009zm-.208-5.979v.009a.009.009 0 00.009-.009z" fill="#fff"/></g><g data-name="Group 256"><path data-name="Path 142" d="M47.763 25.649c.009.009 0 .028 0 .038.019-.009.019-.019.028-.028-.005-.01-.015-.02-.028-.01zm0 0c.009.009 0 .028 0 .038.019-.009.019-.019.028-.028-.005-.01-.015-.02-.028-.01zm0 0c.009.009 0 .028 0 .038.019-.009.019-.019.028-.028-.005-.01-.015-.02-.028-.01zm0 0c.009.009 0 .028 0 .038.019-.009.019-.019.028-.028-.005-.01-.015-.02-.028-.01zm0 0c.009.009 0 .028 0 .038.019-.009.019-.019.028-.028-.005-.01-.015-.02-.028-.01zm0 0c.009.009 0 .028 0 .038.019-.009.019-.019.028-.028-.005-.01-.015-.02-.028-.01zm0 0c.009.009 0 .028 0 .038.019-.009.019-.019.028-.028-.005-.01-.015-.02-.028-.01zm0 0c.009.009 0 .028 0 .038.019-.009.019-.019.028-.028-.005-.01-.015-.02-.028-.01zm0 0c.009.009 0 .028 0 .038.019-.009.019-.019.028-.028-.005-.01-.015-.02-.028-.01zm0 0c.009.009 0 .028 0 .038.019-.009.019-.019.028-.028-.005-.01-.015-.02-.028-.01zm0 0c.009.009 0 .028 0 .038.019-.009.019-.019.028-.028-.005-.01-.015-.02-.028-.01zm0 0c.009.009 0 .028 0 .038.019-.009.019-.019.028-.028-.005-.01-.015-.02-.028-.01zm0 0c.009.009 0 .028 0 .038.019-.009.019-.019.028-.028-.005-.01-.015-.02-.028-.01zm0 0c.009.009 0 .028 0 .038.019-.009.019-.019.028-.028-.005-.01-.015-.02-.028-.01zm0 0c.009.009 0 .028 0 .038.019-.009.019-.019.028-.028-.005-.01-.015-.02-.028-.01zm0 0c.009.009 0 .028 0 .038.019-.009.019-.019.028-.028-.005-.01-.015-.02-.028-.01zm0 0c.009.009 0 .028 0 .038.019-.009.019-.019.028-.028-.005-.01-.015-.02-.028-.01zm0 0c.009.009 0 .028 0 .038.019-.009.019-.019.028-.028-.005-.01-.015-.02-.028-.01zm0 0c.009.009 0 .028 0 .038.019-.009.019-.019.028-.028-.005-.01-.015-.02-.028-.01zm0 0c.009.009 0 .028 0 .038.019-.009.019-.019.028-.028-.005-.01-.015-.02-.028-.01zm0 0c.009.009 0 .028 0 .038.019-.009.019-.019.028-.028-.005-.01-.015-.02-.028-.01zm0 0c.009.009 0 .028 0 .038.019-.009.019-.019.028-.028-.005-.01-.015-.02-.028-.01zm0 0c.009.009 0 .028 0 .038.019-.009.019-.019.028-.028-.005-.01-.015-.02-.028-.01zm0 0c.009.009 0 .028 0 .038.019-.009.019-.019.028-.028-.005-.01-.015-.02-.028-.01zm0 0c.009.009 0 .028 0 .038.019-.009.019-.019.028-.028-.005-.01-.015-.02-.028-.01zm0 0c.009.009 0 .028 0 .038.019-.009.019-.019.028-.028-.005-.01-.015-.02-.028-.01zm0 0c.009.009 0 .028 0 .038.019-.009.019-.019.028-.028-.005-.01-.015-.02-.028-.01zm0 0c.009.009 0 .028 0 .038.019-.009.019-.019.028-.028-.005-.01-.015-.02-.028-.01zm0 0c.009.009 0 .028 0 .038.019-.009.019-.019.028-.028-.005-.01-.015-.02-.028-.01zm0 0c.009.009 0 .028 0 .038.019-.009.019-.019.028-.028-.005-.01-.015-.02-.028-.01zm0 0c.009.009 0 .028 0 .038.019-.009.019-.019.028-.028-.005-.01-.015-.02-.028-.01zm0 0c.009.009 0 .028 0 .038.019-.009.019-.019.028-.028-.005-.01-.015-.02-.028-.01zm0 0c.009.009 0 .028 0 .038.019-.009.019-.019.028-.028-.005-.01-.015-.02-.028-.01zm0 0c.009.009 0 .028 0 .038.019-.009.019-.019.028-.028-.005-.01-.015-.02-.028-.01zm0 0c.009.009 0 .028 0 .038.019-.009.019-.019.028-.028-.005-.01-.015-.02-.028-.01zm0 0c.009.009 0 .028 0 .038.019-.009.019-.019.028-.028-.005-.01-.015-.02-.028-.01zm0 0c.009.009 0 .028 0 .038.019-.009.019-.019.028-.028-.005-.01-.015-.02-.028-.01zm0 0c.009.009 0 .028 0 .038.019-.009.019-.019.028-.028-.005-.01-.015-.02-.028-.01zm0 0c.009.009 0 .028 0 .038.019-.009.019-.019.028-.028-.005-.01-.015-.02-.028-.01zm0 0c.009.009 0 .028 0 .038.019-.009.019-.019.028-.028-.005-.01-.015-.02-.028-.01zm0 0c.009.009 0 .028 0 .038.019-.009.019-.019.028-.028-.005-.01-.015-.02-.028-.01zm0 0c.009.009 0 .028 0 .038.019-.009.019-.019.028-.028-.005-.01-.015-.02-.028-.01zm0 0c.009.009 0 .028 0 .038.019-.009.019-.019.028-.028-.005-.01-.015-.02-.028-.01zm0 0c.009.009 0 .028 0 .038.019-.009.019-.019.028-.028-.005-.01-.015-.02-.028-.01z" fill="#fff"/></g><path data-name="Path 143" d="M51.36 28.487v.443a60.847 60.847 0 01-.17 3.933c-.038.462-.076.915-.132 1.377-.009.142-.028.283-.047.434-.019.151-.028.292-.038.434a52.635 52.635 0 01-1.933 9.157 39.048 39.048 0 01-4.754-.651A51.766 51.766 0 0047.2 32.542c.028-.17.047-.339.076-.509v-.037l.057-.377.028-.217a1.144 1.144 0 01.019-.179c.019-.142.038-.283.047-.434.17-1.434.283-2.876.321-4.329a1.059 1.059 0 00.009-.17c0-.076.009-.151.009-.236v-.368c.019-.009.019-.019.028-.028-.009-.009-.019-.019-.028-.009.009-.189.009-.387.009-.575a39.7 39.7 0 00-1.179-9.941.92.92 0 00-.047-.151c.566-.2 1.1-.368 1.622-.5.4-.1.783-.189 1.141-.245.038.113.066.217.1.33a42.5 42.5 0 011.321 5.847 4.293 4.293 0 01.094.594q.057.283.085.566c.2 1.49.33 2.99.387 4.489.019.179.019.358.028.538.009.18.009.387.009.575.009.292.019.575.009.868.015.141.015.292.015.443z" fill="#f5851f"/><path data-name="Path 144" d="M47.003 27.261a40.449 40.449 0 01-.283 3.48 16.978 16.978 0 01-.1.792.325.325 0 01-.019.161 96.066 96.066 0 01-9.223 8.752c-.424.349-.839.7-1.273 1.037a1.371 1.371 0 01-.179.151l-2.235-.717.208-.179a94.768 94.768 0 002.273-1.98 96.319 96.319 0 008.488-8.63 2.792 2.792 0 00.226-.264c.085-.095.16-.179.236-.274a77.948 77.948 0 001.881-2.329z" fill="#f5851f"/><path data-name="Path 145" d="M31.48 45.039c-.076.047-.161.1-.236.16a79.425 79.425 0 01-8.639 5.432c-.358.189-.707.377-1.066.547a1.405 1.405 0 01-.17.085l-.688-1.386c.076-.038.16-.076.236-.123.481-.255.971-.519 1.452-.792a69.783 69.783 0 006.989-4.612c.085-.057.16-.123.254-.189z" fill="#f5851f"/><path data-name="Path 146" d="M36.406 16.397a100.37 100.37 0 00-18.762 16.56c.473.32.962.6 1.443.9a94.34 94.34 0 0118.655-15.25 3.657 3.657 0 01-1.336-2.21zm-19.5 11.327a3.74 3.74 0 01-2.754-.557c-.192 1.01-.392 2.014-.519 3.028a53.075 53.075 0 003.4 2.377c.17-.189.33-.377.5-.566.073-1.562.208-3.115.424-4.668a3.558 3.558 0 01-1.058.386zm19.5-11.327a100.37 100.37 0 00-18.762 16.56c.473.32.962.6 1.443.9a94.34 94.34 0 0118.655-15.25 3.657 3.657 0 01-1.336-2.21zm0 0a100.37 100.37 0 00-18.762 16.56c.473.32.962.6 1.443.9a94.34 94.34 0 0118.655-15.25 3.657 3.657 0 01-1.336-2.21zm-19.5 11.327a3.74 3.74 0 01-2.754-.557c-.192 1.01-.392 2.014-.519 3.028a53.075 53.075 0 003.4 2.377c.17-.189.33-.377.5-.566.073-1.562.208-3.115.424-4.668a3.558 3.558 0 01-1.058.386zm19.5-11.327a100.37 100.37 0 00-18.762 16.56c.473.32.962.6 1.443.9a94.34 94.34 0 0118.655-15.25 3.657 3.657 0 01-1.336-2.21zm0 0a100.37 100.37 0 00-18.762 16.56c.473.32.962.6 1.443.9a94.34 94.34 0 0118.655-15.25 3.657 3.657 0 01-1.336-2.21zm-19.5 11.327a3.74 3.74 0 01-2.754-.557c-.192 1.01-.392 2.014-.519 3.028a53.075 53.075 0 003.4 2.377c.17-.189.33-.377.5-.566.073-1.562.208-3.115.424-4.668a3.558 3.558 0 01-1.058.386zm0 0a3.74 3.74 0 01-2.754-.557c-.192 1.01-.392 2.014-.519 3.028a53.075 53.075 0 003.4 2.377c.17-.189.33-.377.5-.566.073-1.562.208-3.115.424-4.668a3.558 3.558 0 01-1.058.386zm19.5-11.327a100.37 100.37 0 00-18.762 16.56c.473.32.962.6 1.443.9a94.34 94.34 0 0118.655-15.25 3.657 3.657 0 01-1.336-2.21zm0 0a100.37 100.37 0 00-18.762 16.56c.473.32.962.6 1.443.9a94.34 94.34 0 0118.655-15.25 3.657 3.657 0 01-1.336-2.21zm-19.5 11.327a3.74 3.74 0 01-2.754-.557c-.192 1.01-.392 2.014-.519 3.028a53.075 53.075 0 003.4 2.377c.17-.189.33-.377.5-.566.073-1.562.208-3.115.424-4.668a3.558 3.558 0 01-1.058.386zm0 0a3.74 3.74 0 01-2.754-.557c-.192 1.01-.392 2.014-.519 3.028a53.075 53.075 0 003.4 2.377c.17-.189.33-.377.5-.566.073-1.562.208-3.115.424-4.668a3.558 3.558 0 01-1.058.386zm19.5-11.327a100.37 100.37 0 00-18.762 16.56c.473.32.962.6 1.443.9a94.34 94.34 0 0118.655-15.25 3.657 3.657 0 01-1.336-2.21zm0 0a100.37 100.37 0 00-18.762 16.56c.473.32.962.6 1.443.9a94.34 94.34 0 0118.655-15.25 3.657 3.657 0 01-1.336-2.21zm-19.5 11.327a3.74 3.74 0 01-2.754-.557c-.192 1.01-.392 2.014-.519 3.028a53.075 53.075 0 003.4 2.377c.17-.189.33-.377.5-.566.073-1.562.208-3.115.424-4.668a3.558 3.558 0 01-1.058.386zm0 0a3.74 3.74 0 01-2.754-.557c-.192 1.01-.392 2.014-.519 3.028a53.075 53.075 0 003.4 2.377c.17-.189.33-.377.5-.566.073-1.562.208-3.115.424-4.668a3.558 3.558 0 01-1.058.386zm19.5-11.327a100.37 100.37 0 00-18.762 16.56c.473.32.962.6 1.443.9a94.34 94.34 0 0118.655-15.25 3.657 3.657 0 01-1.336-2.21zm0 0a100.37 100.37 0 00-18.762 16.56c.473.32.962.6 1.443.9a94.34 94.34 0 0118.655-15.25 3.657 3.657 0 01-1.336-2.21zm-19.5 11.327a3.74 3.74 0 01-2.754-.557c-.192 1.01-.392 2.014-.519 3.028a53.075 53.075 0 003.4 2.377c.17-.189.33-.377.5-.566.073-1.562.208-3.115.424-4.668a3.558 3.558 0 01-1.058.386zm0 0a3.74 3.74 0 01-2.754-.557c-.192 1.01-.392 2.014-.519 3.028a53.075 53.075 0 003.4 2.377c.17-.189.33-.377.5-.566.073-1.562.208-3.115.424-4.668a3.558 3.558 0 01-1.058.386zm19.5-11.327a100.37 100.37 0 00-18.762 16.56c.473.32.962.6 1.443.9a94.34 94.34 0 0118.655-15.25 3.657 3.657 0 01-1.336-2.21zm0 0a100.37 100.37 0 00-18.762 16.56c.473.32.962.6 1.443.9a94.34 94.34 0 0118.655-15.25 3.657 3.657 0 01-1.336-2.21zm-18.447 10.94a3.687 3.687 0 01-3.81-.17c-.192 1.01-.392 2.014-.519 3.028a53.075 53.075 0 003.4 2.377c.17-.189.33-.377.5-.566.076-1.563.209-3.116.425-4.669zm43.685-8.167C44.131-18.589-11.966 4.659 2.304 43.748 19.2 83.419 77.78 59.121 61.64 19.169zm-1.981 16.693c-.043.321-.114.656-.179.971a33.866 33.866 0 00-7.423-7.384 54.213 54.213 0 01-.349 5.375c12.039 11.085.852 11.418-9.054 9.177a4.368 4.368 0 01-.4 4.272 35.083 35.083 0 0011.1 1.283 28.494 28.494 0 01-11.883 8.431 31.514 31.514 0 005.347-8.045 47.988 47.988 0 01-4.989-1.047c-11.086 20.512-23.785 5.811-24.219-11.063-1.53-.982-3-2.039-4.452-3.14a40.249 40.249 0 002.98 18.758h.009a20.97 20.97 0 001.641 3.037 25.725 25.725 0 01-3.82-2.443 14.885 14.885 0 001.669-.434l-.66-1.434a9.677 9.677 0 01-2.848.368 27.4 27.4 0 01-2.829-2.914c.151-2.714 1.728-5.322 3.244-7.677a39.283 39.283 0 01-.161-2.4 31.093 31.093 0 00-4.414 8.356 28.717 28.717 0 01-4.385-24.521c6.722 11.075 19.247 17.328 30.774 22.314a4.3 4.3 0 011.844-3.446 82.2 82.2 0 01-19.635-9.148c-9.992-5.656-19.742-19.284-.161-16.08q.467-1.117.962-2.207a26.18 26.18 0 00-9.8.047A28.7 28.7 0 0127.99 2.524c-6.21 4.224-9.664 10.978-12.044 17.787a3.709 3.709 0 013.1 1.311c.017-.088.045-.166.066-.254C21.058 8.377 37.218-7.294 45.076 10.739a27.325 27.325 0 012.48-.934 24.963 24.963 0 00-2.348-3.886 28.123 28.123 0 015.4 3.867 27.872 27.872 0 00-8.2 3 3.642 3.642 0 011.368 2.546c5.8-3.055 12.376-2.823 7.686 5.216a45.528 45.528 0 01.491 4.6 30.194 30.194 0 004.4-8.168 28.729 28.729 0 013.306 18.883zM36.406 16.397a100.37 100.37 0 00-18.762 16.56c.473.32.962.6 1.443.9a94.34 94.34 0 0118.655-15.25 3.657 3.657 0 01-1.336-2.21zm-18.447 10.94a3.687 3.687 0 01-3.81-.17c-.192 1.01-.392 2.014-.519 3.028a53.075 53.075 0 003.4 2.377c.17-.189.33-.377.5-.566.076-1.563.209-3.116.425-4.669zm-1.056.387a3.74 3.74 0 01-2.754-.557c-.192 1.01-.392 2.014-.519 3.028a53.075 53.075 0 003.4 2.377c.17-.189.33-.377.5-.566.073-1.562.208-3.115.424-4.668a3.558 3.558 0 01-1.055.386zm19.5-11.327a100.37 100.37 0 00-18.759 16.56c.473.32.962.6 1.443.9a94.34 94.34 0 0118.655-15.25 3.657 3.657 0 01-1.336-2.21zm0 0a100.37 100.37 0 00-18.759 16.56c.473.32.962.6 1.443.9a94.34 94.34 0 0118.655-15.25 3.657 3.657 0 01-1.336-2.21zm-19.5 11.327a3.74 3.74 0 01-2.754-.557c-.192 1.01-.392 2.014-.519 3.028a53.075 53.075 0 003.4 2.377c.17-.189.33-.377.5-.566.073-1.562.208-3.115.424-4.668a3.558 3.558 0 01-1.055.386zm0 0a3.74 3.74 0 01-2.754-.557c-.192 1.01-.392 2.014-.519 3.028a53.075 53.075 0 003.4 2.377c.17-.189.33-.377.5-.566.073-1.562.208-3.115.424-4.668a3.558 3.558 0 01-1.055.386zm19.5-11.327a100.37 100.37 0 00-18.759 16.56c.473.32.962.6 1.443.9a94.34 94.34 0 0118.655-15.25 3.657 3.657 0 01-1.336-2.21zm0 0a100.37 100.37 0 00-18.759 16.56c.473.32.962.6 1.443.9a94.34 94.34 0 0118.655-15.25 3.657 3.657 0 01-1.336-2.21zm-19.5 11.327a3.74 3.74 0 01-2.754-.557c-.192 1.01-.392 2.014-.519 3.028a53.075 53.075 0 003.4 2.377c.17-.189.33-.377.5-.566.073-1.562.208-3.115.424-4.668a3.558 3.558 0 01-1.055.386zm0 0a3.74 3.74 0 01-2.754-.557c-.192 1.01-.392 2.014-.519 3.028a53.075 53.075 0 003.4 2.377c.17-.189.33-.377.5-.566.073-1.562.208-3.115.424-4.668a3.558 3.558 0 01-1.055.386zm19.5-11.327a100.37 100.37 0 00-18.759 16.56c.473.32.962.6 1.443.9a94.34 94.34 0 0118.655-15.25 3.657 3.657 0 01-1.336-2.21zm0 0a100.37 100.37 0 00-18.759 16.56c.473.32.962.6 1.443.9a94.34 94.34 0 0118.655-15.25 3.657 3.657 0 01-1.336-2.21zm-19.5 11.327a3.74 3.74 0 01-2.754-.557c-.192 1.01-.392 2.014-.519 3.028a53.075 53.075 0 003.4 2.377c.17-.189.33-.377.5-.566.073-1.562.208-3.115.424-4.668a3.558 3.558 0 01-1.055.386zm0 0a3.74 3.74 0 01-2.754-.557c-.192 1.01-.392 2.014-.519 3.028a53.075 53.075 0 003.4 2.377c.17-.189.33-.377.5-.566.073-1.562.208-3.115.424-4.668a3.558 3.558 0 01-1.055.386zm19.5-11.327a100.37 100.37 0 00-18.759 16.56c.473.32.962.6 1.443.9a94.34 94.34 0 0118.655-15.25 3.657 3.657 0 01-1.336-2.21zm0 0a100.37 100.37 0 00-18.759 16.56c.473.32.962.6 1.443.9a94.34 94.34 0 0118.655-15.25 3.657 3.657 0 01-1.336-2.21zm-19.5 11.327a3.74 3.74 0 01-2.754-.557c-.192 1.01-.392 2.014-.519 3.028a53.075 53.075 0 003.4 2.377c.17-.189.33-.377.5-.566.073-1.562.208-3.115.424-4.668a3.558 3.558 0 01-1.055.386zm0 0a3.74 3.74 0 01-2.754-.557c-.192 1.01-.392 2.014-.519 3.028a53.075 53.075 0 003.4 2.377c.17-.189.33-.377.5-.566.073-1.562.208-3.115.424-4.668a3.558 3.558 0 01-1.055.386zm19.5-11.327a100.37 100.37 0 00-18.759 16.56c.473.32.962.6 1.443.9a94.34 94.34 0 0118.655-15.25 3.657 3.657 0 01-1.336-2.21zm0 0a100.37 100.37 0 00-18.759 16.56c.473.32.962.6 1.443.9a94.34 94.34 0 0118.655-15.25 3.657 3.657 0 01-1.336-2.21zm-19.5 11.327a3.74 3.74 0 01-2.754-.557c-.192 1.01-.392 2.014-.519 3.028a53.075 53.075 0 003.4 2.377c.17-.189.33-.377.5-.566.073-1.562.208-3.115.424-4.668a3.558 3.558 0 01-1.055.386zm19.5-11.327a100.37 100.37 0 00-18.759 16.56c.473.32.962.6 1.443.9a94.34 94.34 0 0118.655-15.25 3.657 3.657 0 01-1.336-2.21zm0 0a100.37 100.37 0 00-18.759 16.56c.473.32.962.6 1.443.9a94.34 94.34 0 0118.655-15.25 3.657 3.657 0 01-1.336-2.21z" fill="#ff8600"/><g data-name="Group 265"><g data-name="Group 261"><g data-name="Group 258"><g data-name="Group 257"><path data-name="Path 147" d="M42.665 15.868a2.623 2.623 0 01-2.1 2.386 2.787 2.787 0 01-.481.047 2.7 2.7 0 01-1.283-.33 2.61 2.61 0 01-1.296-1.795 2.794 2.794 0 01-.047-.481 2.682 2.682 0 01.453-1.481 2.554 2.554 0 011.669-1.085 2.171 2.171 0 01.491-.047 2.608 2.608 0 011.216.3c.085.047.17.094.255.151a2.531 2.531 0 011.084 1.66 2.306 2.306 0 01.039.675z" fill="#ff8600"/></g></g><g data-name="Group 260"><g data-name="Group 259"><path data-name="Path 148" d="M41.071 47.953a3.163 3.163 0 01-2.358 1.056 3.219 3.219 0 01-3.16-2.613 1.1 1.1 0 01-.028-.245 3.164 3.164 0 012.245-3.414 1.868 1.868 0 01.33-.085 3.278 3.278 0 01.613-.066 3.139 3.139 0 011.783.556 2.827 2.827 0 01.566.491 3.061 3.061 0 01.783 1.556 3.194 3.194 0 01-.774 2.764z" fill="#ff8600"/></g></g></g><g data-name="Group 264"><g data-name="Group 263"><g data-name="Group 262"><path data-name="Path 149" d="M18.352 25.507c-.047.076-.1.142-.151.208a2.606 2.606 0 01-1.509.9 2.8 2.8 0 01-.481.047 2.626 2.626 0 01-1.811-.726 2.555 2.555 0 01-.764-1.4 2.612 2.612 0 011.924-3.018.7.7 0 01.151-.038 2.149 2.149 0 01.491-.047 2.6 2.6 0 012.471 1.792 1.872 1.872 0 01.085.33 2.553 2.553 0 01-.406 1.952z" fill="#ff8600"/></g></g></g></g></svg>