<?xml version="1.0" encoding="UTF-8" standalone="no"?>
<svg
   xmlns:dc="http://purl.org/dc/elements/1.1/"
   xmlns:cc="http://creativecommons.org/ns#"
   xmlns:rdf="http://www.w3.org/1999/02/22-rdf-syntax-ns#"
   xmlns:svg="http://www.w3.org/2000/svg"
   xmlns="http://www.w3.org/2000/svg"
   xmlns:sodipodi="http://sodipodi.sourceforge.net/DTD/sodipodi-0.dtd"
   xmlns:inkscape="http://www.inkscape.org/namespaces/inkscape"
   width="1280"
   height="640"
   version="1.1"
   id="svg144"
   sodipodi:docname="xgm.svg"
   inkscape:version="1.0.1 (3bc2e813f5, 2020-09-07)">
  <metadata
     id="metadata150">
    <rdf:RDF>
      <cc:Work
         rdf:about="">
        <dc:format>image/svg+xml</dc:format>
        <dc:type
           rdf:resource="http://purl.org/dc/dcmitype/StillImage" />
        <dc:title></dc:title>
      </cc:Work>
    </rdf:RDF>
  </metadata>
  <defs
     id="defs148" />
  <sodipodi:namedview
     pagecolor="#ffffff"
     bordercolor="#666666"
     borderopacity="1"
     objecttolerance="10"
     gridtolerance="10"
     guidetolerance="10"
     inkscape:pageopacity="0"
     inkscape:pageshadow="2"
     inkscape:window-width="3440"
     inkscape:window-height="1417"
     id="namedview146"
     showgrid="true"
     inkscape:zoom="1.3556563"
     inkscape:cx="600.89446"
     inkscape:cy="285.9717"
     inkscape:window-x="-8"
     inkscape:window-y="-8"
     inkscape:window-maximized="1"
     inkscape:current-layer="svg144">
    <inkscape:grid
       type="xygrid"
       id="grid975" />
  </sodipodi:namedview>
  <g
     data-name="Group 266"
     id="g142"
     transform="matrix(4.730512,0,0,4.730512,40.885505,84.582272)">
    <g
       data-name="Group 253"
       id="g92">
      <g
         data-name="Group 251"
         id="g18">
        <path
           data-name="Path 95"
           d="m 81.091,33.38 3.4,-4.476 a 10.742,10.742 0 0 0 7.146,2.914 c 1.638,0 2.519,-0.625 2.519,-1.665 v -0.069 c 0,-1.007 -0.724,-1.561 -3.715,-2.325 -4.69,-1.18 -8.31,-2.637 -8.31,-7.634 v -0.069 c 0,-4.511 3.243,-7.772 8.531,-7.772 a 13.044,13.044 0 0 1 9.065,3.226 l -3.053,4.753 a 10.412,10.412 0 0 0 -6.17,-2.394 c -1.48,0 -2.2,0.694 -2.2,1.561 v 0.069 c 0,1.111 0.755,1.6 3.809,2.36 5.068,1.214 8.216,3.019 8.216,7.564 v 0.069 c 0,4.962 -3.557,7.911 -8.908,7.911 A 14.549,14.549 0 0 1 81.091,33.38 Z"
           id="path2" />
        <path
           data-name="Path 96"
           d="m 108.041,18.601 h -6.61 v -5.9 h 19.328 v 5.9 h -6.61 v 18.39 h -6.107 z"
           id="path4" />
        <path
           data-name="Path 97"
           d="m 123.439,12.701 h 10.419 c 3.368,0 5.7,0.971 7.177,2.638 a 7.962,7.962 0 0 1 1.952,5.655 v 0.069 a 7.71,7.71 0 0 1 -4.533,7.461 l 5.257,8.466 h -7.051 l -4.439,-7.356 h -2.676 v 7.356 h -6.107 z m 10.136,11.659 c 2.078,0 3.274,-1.111 3.274,-2.88 v -0.069 c 0,-1.909 -1.259,-2.88 -3.305,-2.88 h -4 v 5.829 z"
           id="path6" />
        <path
           data-name="Path 98"
           d="m 153.317,12.53 h 5.886 l 9.381,24.462 h -6.546 l -1.605,-4.337 h -8.5 l -1.574,4.337 h -6.421 z m 5.351,14.885 -2.455,-6.9 -2.487,6.9 z"
           id="path8" />
        <path
           data-name="Path 99"
           d="m 173.28,18.601 h -6.611 v -5.9 h 19.327 v 5.9 h -6.611 v 18.39 h -6.107 z"
           id="path10" />
        <path
           data-name="Path 100"
           d="m 188.677,12.701 h 17.722 v 5.725 h -11.678 v 3.678 h 10.577 v 5.309 h -10.577 v 3.851 h 11.836 v 5.725 h -17.88 z"
           id="path12" />
        <path
           data-name="Path 101"
           d="m 208.764,24.917 v -0.069 c 0,-7.079 5.036,-12.63 11.867,-12.63 a 12.175,12.175 0 0 1 8.941,3.539 l -3.589,4.754 a 7.392,7.392 0 0 0 -5.32,-2.29 c -3.179,0 -5.634,2.949 -5.634,6.662 v 0.069 c 0,3.921 2.487,6.731 5.981,6.731 a 5.791,5.791 0 0 0 3.525,-1.007 v -2.949 h -4.344 v -4.926 h 10.136 v 10.93 a 14.1,14.1 0 0 1 -9.569,3.747 c -6.863,0 -11.994,-5.204 -11.994,-12.561 z"
           id="path14" />
        <path
           data-name="Path 102"
           d="m 239.146,27.901 -8.373,-15.2 h 6.956 l 4.533,8.848 4.565,-8.848 h 6.833 l -8.375,15.1 v 9.194 h -6.139 z"
           id="path16" />
      </g>
      <g
         data-name="Group 252"
         fill="#17498a"
         id="g90">
        <path
           data-name="Path 103"
           d="m 81.667,43.518 h 1.718 v 6.168 h -1.718 z"
           id="path20" />
        <path
           data-name="Path 104"
           d="m 84.421,44.92 h 1.674 v 0.67 a 1.769,1.769 0 0 1 1.428,-0.775 1.561,1.561 0 0 1 1.621,1.753 v 3.119 H 87.47 v -2.582 c 0,-0.52 -0.273,-0.8 -0.67,-0.8 a 0.705,0.705 0 0 0 -0.705,0.8 v 2.582 h -1.674 z"
           id="path22" />
        <path
           data-name="Path 105"
           d="M 90.296,48.206 V 46.268 H 89.732 V 44.92 h 0.564 v -1.207 h 1.674 v 1.207 h 1.11 v 1.348 h -1.11 v 1.612 c 0,0.335 0.15,0.476 0.458,0.476 a 1.47,1.47 0 0 0 0.634,-0.158 v 1.313 a 2.392,2.392 0 0 1 -1.163,0.273 1.4,1.4 0 0 1 -1.603,-1.578 z"
           id="path24" />
        <path
           data-name="Path 106"
           d="m 93.478,47.325 v -0.018 a 2.391,2.391 0 0 1 2.406,-2.493 2.346,2.346 0 0 1 2.406,2.608 c 0,0.106 0,0.229 -0.009,0.344 h -3.19 a 0.984,0.984 0 0 0 1.031,0.784 1.439,1.439 0 0 0 1.058,-0.485 l 0.925,0.767 a 2.5,2.5 0 0 1 -2.071,0.969 2.4,2.4 0 0 1 -2.556,-2.476 z m 3.243,-0.414 c -0.062,-0.529 -0.37,-0.863 -0.828,-0.863 -0.441,0 -0.74,0.344 -0.828,0.863 z"
           id="path26" />
        <path
           data-name="Path 107"
           d="m 99.002,44.919 h 1.674 v 0.96 a 1.459,1.459 0 0 1 1.507,-1.04 v 1.759 h -0.141 c -0.872,0 -1.366,0.5 -1.366,1.6 v 1.481 h -1.674 z"
           id="path28" />
        <path
           data-name="Path 108"
           d="m 102.491,47.325 v -0.018 a 2.639,2.639 0 0 1 5.269,-0.017 v 0.017 a 2.639,2.639 0 0 1 -5.269,0.018 z m 3.639,0 v -0.018 a 1.033,1.033 0 0 0 -1.013,-1.075 1,1 0 0 0 -1,1.057 v 0.017 a 1.033,1.033 0 0 0 1.013,1.075 1,1 0 0 0 1,-1.056 z"
           id="path30" />
        <path
           data-name="Path 109"
           d="m 108.465,44.92 h 1.674 v 0.634 a 1.749,1.749 0 0 1 1.445,-0.74 2.233,2.233 0 0 1 2.115,2.467 v 0.018 a 2.241,2.241 0 0 1 -2.106,2.493 1.789,1.789 0 0 1 -1.454,-0.687 v 1.991 h -1.674 z m 3.586,2.388 v -0.017 a 0.978,0.978 0 1 0 -1.947,0 v 0.017 a 0.979,0.979 0 1 0 1.947,0 z"
           id="path32" />
        <path
           data-name="Path 110"
           d="m 114.227,47.325 v -0.018 a 2.391,2.391 0 0 1 2.406,-2.493 2.346,2.346 0 0 1 2.406,2.608 c 0,0.106 0,0.229 -0.009,0.344 h -3.19 a 0.984,0.984 0 0 0 1.031,0.784 1.438,1.438 0 0 0 1.057,-0.485 l 0.925,0.767 a 2.5,2.5 0 0 1 -2.071,0.969 2.4,2.4 0 0 1 -2.555,-2.476 z m 3.243,-0.414 c -0.062,-0.529 -0.37,-0.863 -0.828,-0.863 -0.441,0 -0.74,0.344 -0.828,0.863 z"
           id="path34" />
        <path
           data-name="Path 111"
           d="m 119.751,44.919 h 1.674 v 0.96 a 1.459,1.459 0 0 1 1.507,-1.04 v 1.759 h -0.141 c -0.872,0 -1.366,0.5 -1.366,1.6 v 1.481 h -1.674 z"
           id="path36" />
        <path
           data-name="Path 112"
           d="m 123.064,48.32 v -0.017 c 0,-0.987 0.749,-1.5 1.868,-1.5 a 3.65,3.65 0 0 1 1.146,0.185 v -0.079 c 0,-0.494 -0.308,-0.776 -0.952,-0.776 a 3.359,3.359 0 0 0 -1.313,0.265 l -0.344,-1.181 a 4.792,4.792 0 0 1 1.93,-0.37 2.448,2.448 0 0 1 1.815,0.581 1.99,1.99 0 0 1 0.511,1.516 v 2.741 h -1.656 v -0.494 a 1.8,1.8 0 0 1 -1.4,0.6 1.447,1.447 0 0 1 -1.605,-1.471 z m 3.031,-0.361 v -0.22 a 1.75,1.75 0 0 0 -0.652,-0.123 c -0.484,0 -0.767,0.238 -0.767,0.59 v 0.018 a 0.525,0.525 0 0 0 0.59,0.52 0.766,0.766 0 0 0 0.829,-0.785 z"
           id="path38" />
        <path
           data-name="Path 113"
           d="m 130.253,49.105 v 0.582 h -1.674 v -6.433 h 1.674 v 2.3 a 1.749,1.749 0 0 1 1.445,-0.74 2.233,2.233 0 0 1 2.115,2.467 v 0.018 a 2.241,2.241 0 0 1 -2.106,2.493 1.789,1.789 0 0 1 -1.454,-0.687 z m 1.912,-1.8 v -0.018 a 0.978,0.978 0 1 0 -1.947,0 v 0.017 a 0.979,0.979 0 1 0 1.947,0 z"
           id="path40" />
        <path
           data-name="Path 114"
           d="m 134.535,43.254 h 1.745 v 1.233 h -1.745 z m 0.035,1.666 h 1.675 v 4.767 h -1.675 z"
           id="path42" />
        <path
           data-name="Path 115"
           d="m 137.213,43.254 h 1.675 v 6.433 h -1.675 z"
           id="path44" />
        <path
           data-name="Path 116"
           d="m 139.822,43.254 h 1.745 v 1.233 h -1.745 z m 0.035,1.666 h 1.674 v 4.767 h -1.671 z"
           id="path46" />
        <path
           data-name="Path 117"
           d="m 142.755,48.206 v -1.938 h -0.567 V 44.92 h 0.564 v -1.207 h 1.674 v 1.207 h 1.11 v 1.348 h -1.11 v 1.612 c 0,0.335 0.15,0.476 0.458,0.476 a 1.47,1.47 0 0 0 0.634,-0.158 v 1.313 a 2.392,2.392 0 0 1 -1.163,0.273 1.4,1.4 0 0 1 -1.6,-1.578 z"
           id="path48" />
        <path
           data-name="Path 118"
           d="m 146.138,50.708 0.52,-1.172 a 1.62,1.62 0 0 0 0.732,0.255 0.418,0.418 0 0 0 0.388,-0.194 l -1.868,-4.679 h 1.754 l 0.951,2.873 0.9,-2.873 h 1.718 l -1.745,4.653 c -0.414,1.111 -0.864,1.551 -1.815,1.551 a 3.082,3.082 0 0 1 -1.535,-0.414 z"
           id="path50" />
        <path
           data-name="Path 119"
           d="m 154.517,46.258 h -0.555 v -1.313 h 0.555 v -0.106 a 1.657,1.657 0 0 1 0.405,-1.234 1.632,1.632 0 0 1 1.242,-0.414 3.649,3.649 0 0 1 1.093,0.132 v 1.181 a 1.973,1.973 0 0 0 -0.625,-0.1 c -0.309,0 -0.476,0.141 -0.476,0.45 v 0.115 h 1.093 v 1.286 h -1.066 v 3.432 h -1.665 z"
           id="path52" />
        <path
           data-name="Path 120"
           d="m 157.495,47.325 v -0.018 a 2.639,2.639 0 0 1 5.269,-0.017 v 0.017 a 2.639,2.639 0 0 1 -5.269,0.018 z m 3.639,0 v -0.018 a 1.033,1.033 0 0 0 -1.013,-1.075 1,1 0 0 0 -1,1.057 v 0.017 a 1.034,1.034 0 0 0 1.013,1.075 1,1 0 0 0 1,-1.056 z"
           id="path54" />
        <path
           data-name="Path 121"
           d="m 163.469,44.919 h 1.674 v 0.96 a 1.459,1.459 0 0 1 1.507,-1.04 v 1.759 h -0.141 c -0.872,0 -1.366,0.5 -1.366,1.6 v 1.481 h -1.674 z"
           id="path56" />
        <path
           data-name="Path 122"
           d="m 169.486,47.324 v -0.018 a 2.477,2.477 0 0 1 2.556,-2.485 2.255,2.255 0 0 1 2.035,1.066 l -1.137,0.846 a 1.027,1.027 0 0 0 -0.89,-0.5 0.989,0.989 0 0 0 -0.934,1.057 v 0.017 a 0.989,0.989 0 0 0 0.952,1.084 1.143,1.143 0 0 0 0.916,-0.493 l 1.119,0.811 a 2.365,2.365 0 0 1 -2.123,1.093 2.46,2.46 0 0 1 -2.494,-2.478 z"
           id="path58" />
        <path
           data-name="Path 123"
           d="m 174.693,44.919 h 1.674 v 0.96 a 1.459,1.459 0 0 1 1.507,-1.04 v 1.759 h -0.141 c -0.872,0 -1.366,0.5 -1.366,1.6 v 1.481 h -1.674 z"
           id="path60" />
        <path
           data-name="Path 124"
           d="m 178.464,43.254 h 1.745 v 1.233 h -1.745 z m 0.035,1.666 h 1.674 v 4.767 h -1.674 z"
           id="path62" />
        <path
           data-name="Path 125"
           d="m 180.746,49.087 0.625,-1.013 a 3.1,3.1 0 0 0 1.639,0.546 c 0.291,0 0.423,-0.088 0.423,-0.255 v -0.017 c 0,-0.185 -0.265,-0.264 -0.767,-0.406 -0.943,-0.246 -1.692,-0.564 -1.692,-1.524 v -0.017 c 0,-1.013 0.811,-1.578 1.912,-1.578 a 3.725,3.725 0 0 1 1.965,0.555 l -0.573,1.057 a 3.232,3.232 0 0 0 -1.41,-0.44 c -0.255,0 -0.388,0.1 -0.388,0.229 v 0.018 c 0,0.185 0.273,0.273 0.776,0.423 0.943,0.264 1.692,0.59 1.692,1.516 v 0.018 c 0,1.049 -0.784,1.595 -1.947,1.595 a 3.845,3.845 0 0 1 -2.255,-0.707 z"
           id="path64" />
        <path
           data-name="Path 126"
           d="m 185.636,43.254 h 1.745 v 1.233 h -1.745 z m 0.035,1.666 h 1.674 v 4.767 h -1.674 z"
           id="path66" />
        <path
           data-name="Path 127"
           d="m 187.918,49.087 0.626,-1.013 a 3.1,3.1 0 0 0 1.635,0.55 c 0.291,0 0.423,-0.088 0.423,-0.255 v -0.017 c 0,-0.185 -0.264,-0.264 -0.766,-0.406 -0.943,-0.246 -1.692,-0.564 -1.692,-1.524 v -0.017 c 0,-1.013 0.811,-1.578 1.912,-1.578 a 3.726,3.726 0 0 1 1.965,0.555 l -0.573,1.057 a 3.231,3.231 0 0 0 -1.41,-0.44 c -0.256,0 -0.388,0.1 -0.388,0.229 v 0.018 c 0,0.185 0.273,0.273 0.776,0.423 0.943,0.264 1.692,0.59 1.692,1.516 v 0.018 c 0,1.049 -0.784,1.595 -1.947,1.595 a 3.845,3.845 0 0 1 -2.253,-0.711 z"
           id="path68" />
        <path
           data-name="Path 128"
           d="m 195.248,44.92 h 1.674 v 0.652 a 1.75,1.75 0 0 1 1.418,-0.757 1.46,1.46 0 0 1 1.374,0.775 2.006,2.006 0 0 1 1.6,-0.775 1.548,1.548 0 0 1 1.63,1.745 v 3.128 h -1.674 v -2.591 c 0,-0.52 -0.255,-0.793 -0.652,-0.793 -0.397,0 -0.687,0.273 -0.687,0.793 v 2.591 h -1.674 v -2.591 c 0,-0.52 -0.256,-0.793 -0.652,-0.793 -0.396,0 -0.678,0.273 -0.678,0.793 v 2.591 h -1.674 z"
           id="path70" />
        <path
           data-name="Path 129"
           d="m 203.565,48.32 v -0.017 c 0,-0.987 0.749,-1.5 1.868,-1.5 a 3.652,3.652 0 0 1 1.146,0.185 v -0.079 c 0,-0.494 -0.309,-0.776 -0.951,-0.776 a 3.359,3.359 0 0 0 -1.313,0.265 l -0.343,-1.181 a 4.787,4.787 0 0 1 1.93,-0.37 2.449,2.449 0 0 1 1.815,0.581 1.993,1.993 0 0 1 0.511,1.516 v 2.741 h -1.657 v -0.494 a 1.8,1.8 0 0 1 -1.4,0.6 1.448,1.448 0 0 1 -1.606,-1.471 z m 3.032,-0.361 v -0.22 a 1.754,1.754 0 0 0 -0.652,-0.123 c -0.485,0 -0.767,0.238 -0.767,0.59 v 0.018 a 0.525,0.525 0 0 0 0.591,0.52 0.766,0.766 0 0 0 0.828,-0.785 z"
           id="path72" />
        <path
           data-name="Path 130"
           d="m 209.081,44.92 h 1.674 v 0.67 a 1.767,1.767 0 0 1 1.427,-0.775 1.561,1.561 0 0 1 1.621,1.753 v 3.119 h -1.674 v -2.582 c 0,-0.52 -0.273,-0.8 -0.67,-0.8 a 0.705,0.705 0 0 0 -0.7,0.8 v 2.582 h -1.674 z"
           id="path74" />
        <path
           data-name="Path 131"
           d="m 214.428,48.32 v -0.017 c 0,-0.987 0.749,-1.5 1.868,-1.5 a 3.649,3.649 0 0 1 1.145,0.185 v -0.079 c 0,-0.494 -0.309,-0.776 -0.951,-0.776 a 3.359,3.359 0 0 0 -1.313,0.265 l -0.343,-1.181 a 4.789,4.789 0 0 1 1.93,-0.37 2.449,2.449 0 0 1 1.815,0.581 1.993,1.993 0 0 1 0.511,1.516 v 2.741 h -1.656 v -0.494 a 1.8,1.8 0 0 1 -1.4,0.6 1.448,1.448 0 0 1 -1.606,-1.471 z m 3.032,-0.361 v -0.22 a 1.754,1.754 0 0 0 -0.652,-0.123 c -0.484,0 -0.767,0.238 -0.767,0.59 v 0.018 a 0.525,0.525 0 0 0 0.59,0.52 0.766,0.766 0 0 0 0.829,-0.785 z"
           id="path76" />
        <path
           data-name="Path 132"
           d="m 219.9,50.568 0.538,-1.111 a 3.287,3.287 0 0 0 1.665,0.45 c 0.837,0 1.251,-0.414 1.251,-1.172 V 48.55 a 1.847,1.847 0 0 1 -1.472,0.714 2.076,2.076 0 0 1 -2.114,-2.212 v -0.014 a 2.078,2.078 0 0 1 2.062,-2.22 1.914,1.914 0 0 1 1.5,0.669 v -0.564 h 1.674 v 3.615 a 2.541,2.541 0 0 1 -0.617,1.9 2.833,2.833 0 0 1 -2.1,0.67 5.107,5.107 0 0 1 -2.387,-0.54 z m 3.454,-3.516 v -0.014 a 0.913,0.913 0 0 0 -0.969,-0.917 0.922,0.922 0 0 0 -0.978,0.925 v 0.018 a 0.975,0.975 0 0 0 1.947,-0.009 z"
           id="path78" />
        <path
           data-name="Path 133"
           d="m 225.706,47.325 v -0.018 a 2.391,2.391 0 0 1 2.406,-2.493 2.346,2.346 0 0 1 2.405,2.608 c 0,0.106 0,0.229 -0.009,0.344 h -3.19 a 0.984,0.984 0 0 0 1.031,0.784 1.44,1.44 0 0 0 1.058,-0.485 l 0.925,0.767 a 2.5,2.5 0 0 1 -2.071,0.969 2.4,2.4 0 0 1 -2.555,-2.476 z m 3.243,-0.414 c -0.062,-0.529 -0.37,-0.863 -0.828,-0.863 -0.44,0 -0.74,0.344 -0.828,0.863 z"
           id="path80" />
        <path
           data-name="Path 134"
           d="m 231.23,44.92 h 1.675 v 0.652 a 1.749,1.749 0 0 1 1.418,-0.757 1.461,1.461 0 0 1 1.374,0.775 2,2 0 0 1 1.595,-0.775 1.548,1.548 0 0 1 1.63,1.745 v 3.128 h -1.674 v -2.591 c 0,-0.52 -0.255,-0.793 -0.652,-0.793 -0.397,0 -0.687,0.273 -0.687,0.793 v 2.591 h -1.675 v -2.591 c 0,-0.52 -0.255,-0.793 -0.652,-0.793 -0.397,0 -0.678,0.273 -0.678,0.793 v 2.591 h -1.675 z"
           id="path82" />
        <path
           data-name="Path 135"
           d="m 239.591,47.325 v -0.018 a 2.391,2.391 0 0 1 2.406,-2.493 2.346,2.346 0 0 1 2.406,2.608 c 0,0.106 0,0.229 -0.009,0.344 h -3.19 a 0.985,0.985 0 0 0 1.031,0.784 1.439,1.439 0 0 0 1.057,-0.485 l 0.925,0.767 a 2.5,2.5 0 0 1 -2.071,0.969 2.4,2.4 0 0 1 -2.555,-2.476 z m 3.243,-0.414 a 0.852,0.852 0 0 0 -0.828,-0.863 c -0.44,0 -0.74,0.344 -0.828,0.863 z"
           id="path84" />
        <path
           data-name="Path 136"
           d="m 245.116,44.92 h 1.674 v 0.67 a 1.767,1.767 0 0 1 1.428,-0.775 1.561,1.561 0 0 1 1.621,1.753 v 3.119 h -1.674 v -2.582 c 0,-0.52 -0.273,-0.8 -0.67,-0.8 a 0.705,0.705 0 0 0 -0.7,0.8 v 2.582 h -1.679 z"
           id="path86" />
        <path
           data-name="Path 137"
           d="m 250.992,48.206 v -1.938 h -0.564 V 44.92 h 0.564 v -1.207 h 1.674 v 1.207 h 1.11 v 1.348 h -1.11 v 1.612 c 0,0.335 0.15,0.476 0.458,0.476 a 1.47,1.47 0 0 0 0.634,-0.158 v 1.313 a 2.392,2.392 0 0 1 -1.163,0.273 1.4,1.4 0 0 1 -1.603,-1.578 z"
           id="path88" />
      </g>
    </g>
    <g
       data-name="Group 254"
       id="g98">
      <path
         data-name="Path 138"
         d="M 47.05,26.035 A 81.088,81.088 0 0 0 36.535,20.574 c -0.123,-0.047 -0.236,-0.1 -0.358,-0.151 a 94.905,94.905 0 0 0 -3.141,2.169 c 0.707,0.339 1.415,0.679 2.113,1.037 a 86.723,86.723 0 0 1 9.384,5.555 q 1.344,-1.57 2.518,-3.131 V 26.044 A 0.009,0.009 0 0 0 47.06,26.035 Z M 21.794,15.67 a 38.97,38.97 0 0 0 -0.915,2.339 64.987,64.987 0 0 1 8.309,2.867 104.19,104.19 0 0 1 2.726,-2.15 78.578,78.578 0 0 0 -10.12,-3.056 z"
         fill="#f5851f"
         id="path94" />
      <path
         data-name="Path 139"
         d="m 47.258,32.015 0.019,0.019 v -0.029 a 0.033,0.033 0 0 1 -0.019,0.01 z m 0,0 0.019,0.019 v -0.029 a 0.033,0.033 0 0 1 -0.019,0.01 z m 0,0 0.019,0.019 v -0.029 a 0.033,0.033 0 0 1 -0.019,0.01 z m 0,0 0.019,0.019 v -0.029 a 0.033,0.033 0 0 1 -0.019,0.01 z m 0,0 0.019,0.019 v -0.029 a 0.033,0.033 0 0 1 -0.019,0.01 z m 0,0 0.019,0.019 v -0.029 a 0.033,0.033 0 0 1 -0.019,0.01 z m 0,0 0.019,0.019 v -0.029 a 0.033,0.033 0 0 1 -0.019,0.01 z m 0.509,-6.366 c 0.009,0.009 0,0.028 0,0.038 0.019,-0.009 0.019,-0.019 0.028,-0.028 -0.009,-0.01 -0.018,-0.02 -0.028,-0.01 z m -0.509,6.366 0.019,0.019 v -0.029 a 0.033,0.033 0 0 1 -0.019,0.01 z m 0,0 0.019,0.019 v -0.029 a 0.033,0.033 0 0 1 -0.019,0.01 z m 0,0 0.019,0.019 v -0.029 a 0.033,0.033 0 0 1 -0.019,0.01 z m 0,0 0.019,0.019 v -0.029 a 0.033,0.033 0 0 1 -0.019,0.01 z m 0,0 0.019,0.019 v -0.029 a 0.033,0.033 0 0 1 -0.019,0.01 z m 0,0 0.019,0.019 v -0.029 a 0.033,0.033 0 0 1 -0.019,0.01 z m 0,0 0.019,0.019 v -0.029 a 0.033,0.033 0 0 1 -0.019,0.01 z m 0,0 0.019,0.019 v -0.029 a 0.033,0.033 0 0 1 -0.019,0.01 z m 0,0 0.019,0.019 v -0.029 a 0.033,0.033 0 0 1 -0.019,0.01 z m 0,0 0.019,0.019 v -0.029 a 0.033,0.033 0 0 1 -0.019,0.01 z"
         fill="#ffffff"
         id="path96" />
    </g>
    <g
       data-name="Group 255"
       id="g104">
      <path
         data-name="Path 140"
         d="m 47.767,25.649 c 0.009,0.009 0,0.028 0,0.038 0.019,-0.009 0.019,-0.019 0.028,-0.028 -0.009,-0.01 -0.018,-0.02 -0.028,-0.01 z m -0.509,6.366 0.019,0.019 v -0.029 a 0.033,0.033 0 0 1 -0.019,0.01 z"
         fill="#f5851f"
         id="path100" />
      <path
         data-name="Path 141"
         d="m 47.258,32.02 0.019,0.019 V 32.011 A 0.033,0.033 0 0 1 47.258,32.02 Z M 47.05,26.041 v 0.009 a 0.009,0.009 0 0 0 0.009,-0.009 z m 0.208,5.979 0.019,0.019 V 32.011 A 0.033,0.033 0 0 1 47.258,32.02 Z M 47.05,26.041 v 0.009 a 0.009,0.009 0 0 0 0.009,-0.009 z m 0.208,5.979 0.019,0.019 V 32.011 A 0.033,0.033 0 0 1 47.258,32.02 Z M 47.05,26.041 v 0.009 a 0.009,0.009 0 0 0 0.009,-0.009 z m 0.208,5.979 0.019,0.019 V 32.011 A 0.033,0.033 0 0 1 47.258,32.02 Z M 47.05,26.041 v 0.009 a 0.009,0.009 0 0 0 0.009,-0.009 z m 0.208,5.979 0.019,0.019 V 32.011 A 0.033,0.033 0 0 1 47.258,32.02 Z M 47.05,26.041 v 0.009 a 0.009,0.009 0 0 0 0.009,-0.009 z m 0.208,5.979 0.019,0.019 v -0.028 a 0.033,0.033 0 0 1 -0.019,0.009 z m 0,0 0.019,0.019 v -0.028 a 0.033,0.033 0 0 1 -0.019,0.009 z m 0,0 0.019,0.019 v -0.028 a 0.033,0.033 0 0 1 -0.019,0.009 z m 0,0 0.019,0.019 v -0.028 a 0.033,0.033 0 0 1 -0.019,0.009 z m 0,0 0.019,0.019 v -0.028 a 0.033,0.033 0 0 1 -0.019,0.009 z m 0,0 0.019,0.019 v -0.028 a 0.033,0.033 0 0 1 -0.019,0.009 z m 0,0 0.019,0.019 v -0.028 a 0.033,0.033 0 0 1 -0.019,0.009 z m 0,0 0.019,0.019 v -0.028 a 0.033,0.033 0 0 1 -0.019,0.009 z m 0,0 0.019,0.019 v -0.028 a 0.033,0.033 0 0 1 -0.019,0.009 z m 0,0 0.019,0.019 v -0.028 a 0.033,0.033 0 0 1 -0.019,0.009 z m 0,0 0.019,0.019 v -0.028 a 0.033,0.033 0 0 1 -0.019,0.009 z m 0,0 0.019,0.019 V 32.011 A 0.033,0.033 0 0 1 47.258,32.02 Z M 47.05,26.041 v 0.009 a 0.009,0.009 0 0 0 0.009,-0.009 z m 0.208,5.979 0.019,0.019 v -0.028 a 0.033,0.033 0 0 1 -0.019,0.009 z m 0,0 0.019,0.019 v -0.028 a 0.033,0.033 0 0 1 -0.019,0.009 z m 0,0 0.019,0.019 v -0.028 a 0.033,0.033 0 0 1 -0.019,0.009 z m 0,0 0.019,0.019 v -0.028 a 0.033,0.033 0 0 1 -0.019,0.009 z m 0,0 0.019,0.019 v -0.028 a 0.033,0.033 0 0 1 -0.019,0.009 z m 0,0 0.019,0.019 v -0.028 a 0.033,0.033 0 0 1 -0.019,0.009 z m 0,0 0.019,0.019 v -0.028 a 0.033,0.033 0 0 1 -0.019,0.009 z m 0,0 0.019,0.019 v -0.028 a 0.033,0.033 0 0 1 -0.019,0.009 z m 0,0 0.019,0.019 v -0.028 a 0.033,0.033 0 0 1 -0.019,0.009 z m 0,0 0.019,0.019 v -0.028 a 0.033,0.033 0 0 1 -0.019,0.009 z m 0,0 0.019,0.019 v -0.028 a 0.033,0.033 0 0 1 -0.019,0.009 z m 0,0 0.019,0.019 v -0.028 a 0.033,0.033 0 0 1 -0.019,0.009 z m 0,0 0.019,0.019 V 32.011 A 0.033,0.033 0 0 1 47.258,32.02 Z M 47.05,26.041 v 0.009 a 0.009,0.009 0 0 0 0.009,-0.009 z m 0.208,5.979 0.019,0.019 V 32.011 A 0.033,0.033 0 0 1 47.258,32.02 Z M 47.05,26.041 v 0.009 a 0.009,0.009 0 0 0 0.009,-0.009 z"
         fill="#ffffff"
         id="path102" />
    </g>
    <g
       data-name="Group 256"
       id="g108">
      <path
         data-name="Path 142"
         d="m 47.763,25.649 c 0.009,0.009 0,0.028 0,0.038 0.019,-0.009 0.019,-0.019 0.028,-0.028 -0.005,-0.01 -0.015,-0.02 -0.028,-0.01 z m 0,0 c 0.009,0.009 0,0.028 0,0.038 0.019,-0.009 0.019,-0.019 0.028,-0.028 -0.005,-0.01 -0.015,-0.02 -0.028,-0.01 z m 0,0 c 0.009,0.009 0,0.028 0,0.038 0.019,-0.009 0.019,-0.019 0.028,-0.028 -0.005,-0.01 -0.015,-0.02 -0.028,-0.01 z m 0,0 c 0.009,0.009 0,0.028 0,0.038 0.019,-0.009 0.019,-0.019 0.028,-0.028 -0.005,-0.01 -0.015,-0.02 -0.028,-0.01 z m 0,0 c 0.009,0.009 0,0.028 0,0.038 0.019,-0.009 0.019,-0.019 0.028,-0.028 -0.005,-0.01 -0.015,-0.02 -0.028,-0.01 z m 0,0 c 0.009,0.009 0,0.028 0,0.038 0.019,-0.009 0.019,-0.019 0.028,-0.028 -0.005,-0.01 -0.015,-0.02 -0.028,-0.01 z m 0,0 c 0.009,0.009 0,0.028 0,0.038 0.019,-0.009 0.019,-0.019 0.028,-0.028 -0.005,-0.01 -0.015,-0.02 -0.028,-0.01 z m 0,0 c 0.009,0.009 0,0.028 0,0.038 0.019,-0.009 0.019,-0.019 0.028,-0.028 -0.005,-0.01 -0.015,-0.02 -0.028,-0.01 z m 0,0 c 0.009,0.009 0,0.028 0,0.038 0.019,-0.009 0.019,-0.019 0.028,-0.028 -0.005,-0.01 -0.015,-0.02 -0.028,-0.01 z m 0,0 c 0.009,0.009 0,0.028 0,0.038 0.019,-0.009 0.019,-0.019 0.028,-0.028 -0.005,-0.01 -0.015,-0.02 -0.028,-0.01 z m 0,0 c 0.009,0.009 0,0.028 0,0.038 0.019,-0.009 0.019,-0.019 0.028,-0.028 -0.005,-0.01 -0.015,-0.02 -0.028,-0.01 z m 0,0 c 0.009,0.009 0,0.028 0,0.038 0.019,-0.009 0.019,-0.019 0.028,-0.028 -0.005,-0.01 -0.015,-0.02 -0.028,-0.01 z m 0,0 c 0.009,0.009 0,0.028 0,0.038 0.019,-0.009 0.019,-0.019 0.028,-0.028 -0.005,-0.01 -0.015,-0.02 -0.028,-0.01 z m 0,0 c 0.009,0.009 0,0.028 0,0.038 0.019,-0.009 0.019,-0.019 0.028,-0.028 -0.005,-0.01 -0.015,-0.02 -0.028,-0.01 z m 0,0 c 0.009,0.009 0,0.028 0,0.038 0.019,-0.009 0.019,-0.019 0.028,-0.028 -0.005,-0.01 -0.015,-0.02 -0.028,-0.01 z m 0,0 c 0.009,0.009 0,0.028 0,0.038 0.019,-0.009 0.019,-0.019 0.028,-0.028 -0.005,-0.01 -0.015,-0.02 -0.028,-0.01 z m 0,0 c 0.009,0.009 0,0.028 0,0.038 0.019,-0.009 0.019,-0.019 0.028,-0.028 -0.005,-0.01 -0.015,-0.02 -0.028,-0.01 z m 0,0 c 0.009,0.009 0,0.028 0,0.038 0.019,-0.009 0.019,-0.019 0.028,-0.028 -0.005,-0.01 -0.015,-0.02 -0.028,-0.01 z m 0,0 c 0.009,0.009 0,0.028 0,0.038 0.019,-0.009 0.019,-0.019 0.028,-0.028 -0.005,-0.01 -0.015,-0.02 -0.028,-0.01 z m 0,0 c 0.009,0.009 0,0.028 0,0.038 0.019,-0.009 0.019,-0.019 0.028,-0.028 -0.005,-0.01 -0.015,-0.02 -0.028,-0.01 z m 0,0 c 0.009,0.009 0,0.028 0,0.038 0.019,-0.009 0.019,-0.019 0.028,-0.028 -0.005,-0.01 -0.015,-0.02 -0.028,-0.01 z m 0,0 c 0.009,0.009 0,0.028 0,0.038 0.019,-0.009 0.019,-0.019 0.028,-0.028 -0.005,-0.01 -0.015,-0.02 -0.028,-0.01 z m 0,0 c 0.009,0.009 0,0.028 0,0.038 0.019,-0.009 0.019,-0.019 0.028,-0.028 -0.005,-0.01 -0.015,-0.02 -0.028,-0.01 z m 0,0 c 0.009,0.009 0,0.028 0,0.038 0.019,-0.009 0.019,-0.019 0.028,-0.028 -0.005,-0.01 -0.015,-0.02 -0.028,-0.01 z m 0,0 c 0.009,0.009 0,0.028 0,0.038 0.019,-0.009 0.019,-0.019 0.028,-0.028 -0.005,-0.01 -0.015,-0.02 -0.028,-0.01 z m 0,0 c 0.009,0.009 0,0.028 0,0.038 0.019,-0.009 0.019,-0.019 0.028,-0.028 -0.005,-0.01 -0.015,-0.02 -0.028,-0.01 z m 0,0 c 0.009,0.009 0,0.028 0,0.038 0.019,-0.009 0.019,-0.019 0.028,-0.028 -0.005,-0.01 -0.015,-0.02 -0.028,-0.01 z m 0,0 c 0.009,0.009 0,0.028 0,0.038 0.019,-0.009 0.019,-0.019 0.028,-0.028 -0.005,-0.01 -0.015,-0.02 -0.028,-0.01 z m 0,0 c 0.009,0.009 0,0.028 0,0.038 0.019,-0.009 0.019,-0.019 0.028,-0.028 -0.005,-0.01 -0.015,-0.02 -0.028,-0.01 z m 0,0 c 0.009,0.009 0,0.028 0,0.038 0.019,-0.009 0.019,-0.019 0.028,-0.028 -0.005,-0.01 -0.015,-0.02 -0.028,-0.01 z m 0,0 c 0.009,0.009 0,0.028 0,0.038 0.019,-0.009 0.019,-0.019 0.028,-0.028 -0.005,-0.01 -0.015,-0.02 -0.028,-0.01 z m 0,0 c 0.009,0.009 0,0.028 0,0.038 0.019,-0.009 0.019,-0.019 0.028,-0.028 -0.005,-0.01 -0.015,-0.02 -0.028,-0.01 z m 0,0 c 0.009,0.009 0,0.028 0,0.038 0.019,-0.009 0.019,-0.019 0.028,-0.028 -0.005,-0.01 -0.015,-0.02 -0.028,-0.01 z m 0,0 c 0.009,0.009 0,0.028 0,0.038 0.019,-0.009 0.019,-0.019 0.028,-0.028 -0.005,-0.01 -0.015,-0.02 -0.028,-0.01 z m 0,0 c 0.009,0.009 0,0.028 0,0.038 0.019,-0.009 0.019,-0.019 0.028,-0.028 -0.005,-0.01 -0.015,-0.02 -0.028,-0.01 z m 0,0 c 0.009,0.009 0,0.028 0,0.038 0.019,-0.009 0.019,-0.019 0.028,-0.028 -0.005,-0.01 -0.015,-0.02 -0.028,-0.01 z m 0,0 c 0.009,0.009 0,0.028 0,0.038 0.019,-0.009 0.019,-0.019 0.028,-0.028 -0.005,-0.01 -0.015,-0.02 -0.028,-0.01 z m 0,0 c 0.009,0.009 0,0.028 0,0.038 0.019,-0.009 0.019,-0.019 0.028,-0.028 -0.005,-0.01 -0.015,-0.02 -0.028,-0.01 z m 0,0 c 0.009,0.009 0,0.028 0,0.038 0.019,-0.009 0.019,-0.019 0.028,-0.028 -0.005,-0.01 -0.015,-0.02 -0.028,-0.01 z m 0,0 c 0.009,0.009 0,0.028 0,0.038 0.019,-0.009 0.019,-0.019 0.028,-0.028 -0.005,-0.01 -0.015,-0.02 -0.028,-0.01 z m 0,0 c 0.009,0.009 0,0.028 0,0.038 0.019,-0.009 0.019,-0.019 0.028,-0.028 -0.005,-0.01 -0.015,-0.02 -0.028,-0.01 z m 0,0 c 0.009,0.009 0,0.028 0,0.038 0.019,-0.009 0.019,-0.019 0.028,-0.028 -0.005,-0.01 -0.015,-0.02 -0.028,-0.01 z m 0,0 c 0.009,0.009 0,0.028 0,0.038 0.019,-0.009 0.019,-0.019 0.028,-0.028 -0.005,-0.01 -0.015,-0.02 -0.028,-0.01 z m 0,0 c 0.009,0.009 0,0.028 0,0.038 0.019,-0.009 0.019,-0.019 0.028,-0.028 -0.005,-0.01 -0.015,-0.02 -0.028,-0.01 z"
         fill="#ffffff"
         id="path106" />
    </g>
    <path
       data-name="Path 143"
       d="m 51.36,28.487 v 0.443 a 60.847,60.847 0 0 1 -0.17,3.933 c -0.038,0.462 -0.076,0.915 -0.132,1.377 -0.009,0.142 -0.028,0.283 -0.047,0.434 -0.019,0.151 -0.028,0.292 -0.038,0.434 A 52.635,52.635 0 0 1 49.04,44.265 39.048,39.048 0 0 1 44.286,43.614 51.766,51.766 0 0 0 47.2,32.542 c 0.028,-0.17 0.047,-0.339 0.076,-0.509 v -0.037 l 0.057,-0.377 0.028,-0.217 a 1.144,1.144 0 0 1 0.019,-0.179 c 0.019,-0.142 0.038,-0.283 0.047,-0.434 0.17,-1.434 0.283,-2.876 0.321,-4.329 a 1.059,1.059 0 0 0 0.009,-0.17 c 0,-0.076 0.009,-0.151 0.009,-0.236 v -0.368 c 0.019,-0.009 0.019,-0.019 0.028,-0.028 -0.009,-0.009 -0.019,-0.019 -0.028,-0.009 0.009,-0.189 0.009,-0.387 0.009,-0.575 a 39.7,39.7 0 0 0 -1.179,-9.941 0.92,0.92 0 0 0 -0.047,-0.151 c 0.566,-0.2 1.1,-0.368 1.622,-0.5 0.4,-0.1 0.783,-0.189 1.141,-0.245 0.038,0.113 0.066,0.217 0.1,0.33 a 42.5,42.5 0 0 1 1.321,5.847 4.293,4.293 0 0 1 0.094,0.594 q 0.057,0.283 0.085,0.566 c 0.2,1.49 0.33,2.99 0.387,4.489 0.019,0.179 0.019,0.358 0.028,0.538 0.009,0.18 0.009,0.387 0.009,0.575 0.009,0.292 0.019,0.575 0.009,0.868 0.015,0.141 0.015,0.292 0.015,0.443 z"
       fill="#f5851f"
       id="path110" />
    <path
       data-name="Path 144"
       d="m 47.003,27.261 a 40.449,40.449 0 0 1 -0.283,3.48 16.978,16.978 0 0 1 -0.1,0.792 0.325,0.325 0 0 1 -0.019,0.161 96.066,96.066 0 0 1 -9.223,8.752 c -0.424,0.349 -0.839,0.7 -1.273,1.037 a 1.371,1.371 0 0 1 -0.179,0.151 l -2.235,-0.717 0.208,-0.179 a 94.768,94.768 0 0 0 2.273,-1.98 96.319,96.319 0 0 0 8.488,-8.63 2.792,2.792 0 0 0 0.226,-0.264 c 0.085,-0.095 0.16,-0.179 0.236,-0.274 a 77.948,77.948 0 0 0 1.881,-2.329 z"
       fill="#f5851f"
       id="path112" />
    <path
       data-name="Path 145"
       d="m 31.48,45.039 c -0.076,0.047 -0.161,0.1 -0.236,0.16 a 79.425,79.425 0 0 1 -8.639,5.432 c -0.358,0.189 -0.707,0.377 -1.066,0.547 a 1.405,1.405 0 0 1 -0.17,0.085 l -0.688,-1.386 c 0.076,-0.038 0.16,-0.076 0.236,-0.123 0.481,-0.255 0.971,-0.519 1.452,-0.792 a 69.783,69.783 0 0 0 6.989,-4.612 c 0.085,-0.057 0.16,-0.123 0.254,-0.189 z"
       fill="#f5851f"
       id="path114" />
    <path
       data-name="Path 146"
       d="m 36.406,16.397 a 100.37,100.37 0 0 0 -18.762,16.56 c 0.473,0.32 0.962,0.6 1.443,0.9 a 94.34,94.34 0 0 1 18.655,-15.25 3.657,3.657 0 0 1 -1.336,-2.21 z m -19.5,11.327 a 3.74,3.74 0 0 1 -2.754,-0.557 c -0.192,1.01 -0.392,2.014 -0.519,3.028 a 53.075,53.075 0 0 0 3.4,2.377 c 0.17,-0.189 0.33,-0.377 0.5,-0.566 0.073,-1.562 0.208,-3.115 0.424,-4.668 a 3.558,3.558 0 0 1 -1.058,0.386 z m 19.5,-11.327 a 100.37,100.37 0 0 0 -18.762,16.56 c 0.473,0.32 0.962,0.6 1.443,0.9 a 94.34,94.34 0 0 1 18.655,-15.25 3.657,3.657 0 0 1 -1.336,-2.21 z m 0,0 a 100.37,100.37 0 0 0 -18.762,16.56 c 0.473,0.32 0.962,0.6 1.443,0.9 a 94.34,94.34 0 0 1 18.655,-15.25 3.657,3.657 0 0 1 -1.336,-2.21 z m -19.5,11.327 a 3.74,3.74 0 0 1 -2.754,-0.557 c -0.192,1.01 -0.392,2.014 -0.519,3.028 a 53.075,53.075 0 0 0 3.4,2.377 c 0.17,-0.189 0.33,-0.377 0.5,-0.566 0.073,-1.562 0.208,-3.115 0.424,-4.668 a 3.558,3.558 0 0 1 -1.058,0.386 z m 19.5,-11.327 a 100.37,100.37 0 0 0 -18.762,16.56 c 0.473,0.32 0.962,0.6 1.443,0.9 a 94.34,94.34 0 0 1 18.655,-15.25 3.657,3.657 0 0 1 -1.336,-2.21 z m 0,0 a 100.37,100.37 0 0 0 -18.762,16.56 c 0.473,0.32 0.962,0.6 1.443,0.9 a 94.34,94.34 0 0 1 18.655,-15.25 3.657,3.657 0 0 1 -1.336,-2.21 z m -19.5,11.327 a 3.74,3.74 0 0 1 -2.754,-0.557 c -0.192,1.01 -0.392,2.014 -0.519,3.028 a 53.075,53.075 0 0 0 3.4,2.377 c 0.17,-0.189 0.33,-0.377 0.5,-0.566 0.073,-1.562 0.208,-3.115 0.424,-4.668 a 3.558,3.558 0 0 1 -1.058,0.386 z m 0,0 a 3.74,3.74 0 0 1 -2.754,-0.557 c -0.192,1.01 -0.392,2.014 -0.519,3.028 a 53.075,53.075 0 0 0 3.4,2.377 c 0.17,-0.189 0.33,-0.377 0.5,-0.566 0.073,-1.562 0.208,-3.115 0.424,-4.668 a 3.558,3.558 0 0 1 -1.058,0.386 z m 19.5,-11.327 a 100.37,100.37 0 0 0 -18.762,16.56 c 0.473,0.32 0.962,0.6 1.443,0.9 a 94.34,94.34 0 0 1 18.655,-15.25 3.657,3.657 0 0 1 -1.336,-2.21 z m 0,0 a 100.37,100.37 0 0 0 -18.762,16.56 c 0.473,0.32 0.962,0.6 1.443,0.9 a 94.34,94.34 0 0 1 18.655,-15.25 3.657,3.657 0 0 1 -1.336,-2.21 z m -19.5,11.327 a 3.74,3.74 0 0 1 -2.754,-0.557 c -0.192,1.01 -0.392,2.014 -0.519,3.028 a 53.075,53.075 0 0 0 3.4,2.377 c 0.17,-0.189 0.33,-0.377 0.5,-0.566 0.073,-1.562 0.208,-3.115 0.424,-4.668 a 3.558,3.558 0 0 1 -1.058,0.386 z m 0,0 a 3.74,3.74 0 0 1 -2.754,-0.557 c -0.192,1.01 -0.392,2.014 -0.519,3.028 a 53.075,53.075 0 0 0 3.4,2.377 c 0.17,-0.189 0.33,-0.377 0.5,-0.566 0.073,-1.562 0.208,-3.115 0.424,-4.668 a 3.558,3.558 0 0 1 -1.058,0.386 z m 19.5,-11.327 a 100.37,100.37 0 0 0 -18.762,16.56 c 0.473,0.32 0.962,0.6 1.443,0.9 a 94.34,94.34 0 0 1 18.655,-15.25 3.657,3.657 0 0 1 -1.336,-2.21 z m 0,0 a 100.37,100.37 0 0 0 -18.762,16.56 c 0.473,0.32 0.962,0.6 1.443,0.9 a 94.34,94.34 0 0 1 18.655,-15.25 3.657,3.657 0 0 1 -1.336,-2.21 z m -19.5,11.327 a 3.74,3.74 0 0 1 -2.754,-0.557 c -0.192,1.01 -0.392,2.014 -0.519,3.028 a 53.075,53.075 0 0 0 3.4,2.377 c 0.17,-0.189 0.33,-0.377 0.5,-0.566 0.073,-1.562 0.208,-3.115 0.424,-4.668 a 3.558,3.558 0 0 1 -1.058,0.386 z m 0,0 a 3.74,3.74 0 0 1 -2.754,-0.557 c -0.192,1.01 -0.392,2.014 -0.519,3.028 a 53.075,53.075 0 0 0 3.4,2.377 c 0.17,-0.189 0.33,-0.377 0.5,-0.566 0.073,-1.562 0.208,-3.115 0.424,-4.668 a 3.558,3.558 0 0 1 -1.058,0.386 z m 19.5,-11.327 a 100.37,100.37 0 0 0 -18.762,16.56 c 0.473,0.32 0.962,0.6 1.443,0.9 a 94.34,94.34 0 0 1 18.655,-15.25 3.657,3.657 0 0 1 -1.336,-2.21 z m 0,0 a 100.37,100.37 0 0 0 -18.762,16.56 c 0.473,0.32 0.962,0.6 1.443,0.9 a 94.34,94.34 0 0 1 18.655,-15.25 3.657,3.657 0 0 1 -1.336,-2.21 z m -19.5,11.327 a 3.74,3.74 0 0 1 -2.754,-0.557 c -0.192,1.01 -0.392,2.014 -0.519,3.028 a 53.075,53.075 0 0 0 3.4,2.377 c 0.17,-0.189 0.33,-0.377 0.5,-0.566 0.073,-1.562 0.208,-3.115 0.424,-4.668 a 3.558,3.558 0 0 1 -1.058,0.386 z m 0,0 a 3.74,3.74 0 0 1 -2.754,-0.557 c -0.192,1.01 -0.392,2.014 -0.519,3.028 a 53.075,53.075 0 0 0 3.4,2.377 c 0.17,-0.189 0.33,-0.377 0.5,-0.566 0.073,-1.562 0.208,-3.115 0.424,-4.668 a 3.558,3.558 0 0 1 -1.058,0.386 z m 19.5,-11.327 a 100.37,100.37 0 0 0 -18.762,16.56 c 0.473,0.32 0.962,0.6 1.443,0.9 a 94.34,94.34 0 0 1 18.655,-15.25 3.657,3.657 0 0 1 -1.336,-2.21 z m 0,0 a 100.37,100.37 0 0 0 -18.762,16.56 c 0.473,0.32 0.962,0.6 1.443,0.9 a 94.34,94.34 0 0 1 18.655,-15.25 3.657,3.657 0 0 1 -1.336,-2.21 z m -18.447,10.94 a 3.687,3.687 0 0 1 -3.81,-0.17 c -0.192,1.01 -0.392,2.014 -0.519,3.028 a 53.075,53.075 0 0 0 3.4,2.377 c 0.17,-0.189 0.33,-0.377 0.5,-0.566 0.076,-1.563 0.209,-3.116 0.425,-4.669 z M 61.644,19.17 C 44.131,-18.589 -11.966,4.659 2.304,43.748 19.2,83.419 77.78,59.121 61.64,19.169 Z m -1.981,16.693 c -0.043,0.321 -0.114,0.656 -0.179,0.971 a 33.866,33.866 0 0 0 -7.423,-7.384 54.213,54.213 0 0 1 -0.349,5.375 c 12.039,11.085 0.852,11.418 -9.054,9.177 a 4.368,4.368 0 0 1 -0.4,4.272 35.083,35.083 0 0 0 11.1,1.283 28.494,28.494 0 0 1 -11.883,8.431 31.514,31.514 0 0 0 5.347,-8.045 47.988,47.988 0 0 1 -4.989,-1.047 C 30.747,69.408 18.048,54.707 17.614,37.833 c -1.53,-0.982 -3,-2.039 -4.452,-3.14 a 40.249,40.249 0 0 0 2.98,18.758 h 0.009 a 20.97,20.97 0 0 0 1.641,3.037 25.725,25.725 0 0 1 -3.82,-2.443 14.885,14.885 0 0 0 1.669,-0.434 l -0.66,-1.434 a 9.677,9.677 0 0 1 -2.848,0.368 27.4,27.4 0 0 1 -2.829,-2.914 c 0.151,-2.714 1.728,-5.322 3.244,-7.677 A 39.283,39.283 0 0 1 12.387,39.554 31.093,31.093 0 0 0 7.973,47.91 28.717,28.717 0 0 1 3.588,23.389 C 10.31,34.464 22.835,40.717 34.362,45.703 A 4.3,4.3 0 0 1 36.206,42.257 82.2,82.2 0 0 1 16.571,33.109 C 6.579,27.453 -3.171,13.825 16.41,17.029 q 0.467,-1.117 0.962,-2.207 A 26.18,26.18 0 0 0 7.572,14.869 28.7,28.7 0 0 1 27.99,2.524 C 21.78,6.748 18.326,13.502 15.946,20.311 a 3.709,3.709 0 0 1 3.1,1.311 c 0.017,-0.088 0.045,-0.166 0.066,-0.254 C 21.058,8.377 37.218,-7.294 45.076,10.739 a 27.325,27.325 0 0 1 2.48,-0.934 24.963,24.963 0 0 0 -2.348,-3.886 28.123,28.123 0 0 1 5.4,3.867 27.872,27.872 0 0 0 -8.2,3 3.642,3.642 0 0 1 1.368,2.546 c 5.8,-3.055 12.376,-2.823 7.686,5.216 a 45.528,45.528 0 0 1 0.491,4.6 30.194,30.194 0 0 0 4.4,-8.168 28.729,28.729 0 0 1 3.306,18.883 z M 36.406,16.397 a 100.37,100.37 0 0 0 -18.762,16.56 c 0.473,0.32 0.962,0.6 1.443,0.9 a 94.34,94.34 0 0 1 18.655,-15.25 3.657,3.657 0 0 1 -1.336,-2.21 z m -18.447,10.94 a 3.687,3.687 0 0 1 -3.81,-0.17 c -0.192,1.01 -0.392,2.014 -0.519,3.028 a 53.075,53.075 0 0 0 3.4,2.377 c 0.17,-0.189 0.33,-0.377 0.5,-0.566 0.076,-1.563 0.209,-3.116 0.425,-4.669 z m -1.056,0.387 a 3.74,3.74 0 0 1 -2.754,-0.557 c -0.192,1.01 -0.392,2.014 -0.519,3.028 a 53.075,53.075 0 0 0 3.4,2.377 c 0.17,-0.189 0.33,-0.377 0.5,-0.566 0.073,-1.562 0.208,-3.115 0.424,-4.668 a 3.558,3.558 0 0 1 -1.055,0.386 z m 19.5,-11.327 a 100.37,100.37 0 0 0 -18.759,16.56 c 0.473,0.32 0.962,0.6 1.443,0.9 a 94.34,94.34 0 0 1 18.655,-15.25 3.657,3.657 0 0 1 -1.336,-2.21 z m 0,0 a 100.37,100.37 0 0 0 -18.759,16.56 c 0.473,0.32 0.962,0.6 1.443,0.9 a 94.34,94.34 0 0 1 18.655,-15.25 3.657,3.657 0 0 1 -1.336,-2.21 z m -19.5,11.327 a 3.74,3.74 0 0 1 -2.754,-0.557 c -0.192,1.01 -0.392,2.014 -0.519,3.028 a 53.075,53.075 0 0 0 3.4,2.377 c 0.17,-0.189 0.33,-0.377 0.5,-0.566 0.073,-1.562 0.208,-3.115 0.424,-4.668 a 3.558,3.558 0 0 1 -1.055,0.386 z m 0,0 a 3.74,3.74 0 0 1 -2.754,-0.557 c -0.192,1.01 -0.392,2.014 -0.519,3.028 a 53.075,53.075 0 0 0 3.4,2.377 c 0.17,-0.189 0.33,-0.377 0.5,-0.566 0.073,-1.562 0.208,-3.115 0.424,-4.668 a 3.558,3.558 0 0 1 -1.055,0.386 z m 19.5,-11.327 a 100.37,100.37 0 0 0 -18.759,16.56 c 0.473,0.32 0.962,0.6 1.443,0.9 a 94.34,94.34 0 0 1 18.655,-15.25 3.657,3.657 0 0 1 -1.336,-2.21 z m 0,0 a 100.37,100.37 0 0 0 -18.759,16.56 c 0.473,0.32 0.962,0.6 1.443,0.9 a 94.34,94.34 0 0 1 18.655,-15.25 3.657,3.657 0 0 1 -1.336,-2.21 z m -19.5,11.327 a 3.74,3.74 0 0 1 -2.754,-0.557 c -0.192,1.01 -0.392,2.014 -0.519,3.028 a 53.075,53.075 0 0 0 3.4,2.377 c 0.17,-0.189 0.33,-0.377 0.5,-0.566 0.073,-1.562 0.208,-3.115 0.424,-4.668 a 3.558,3.558 0 0 1 -1.055,0.386 z m 0,0 a 3.74,3.74 0 0 1 -2.754,-0.557 c -0.192,1.01 -0.392,2.014 -0.519,3.028 a 53.075,53.075 0 0 0 3.4,2.377 c 0.17,-0.189 0.33,-0.377 0.5,-0.566 0.073,-1.562 0.208,-3.115 0.424,-4.668 a 3.558,3.558 0 0 1 -1.055,0.386 z m 19.5,-11.327 a 100.37,100.37 0 0 0 -18.759,16.56 c 0.473,0.32 0.962,0.6 1.443,0.9 a 94.34,94.34 0 0 1 18.655,-15.25 3.657,3.657 0 0 1 -1.336,-2.21 z m 0,0 a 100.37,100.37 0 0 0 -18.759,16.56 c 0.473,0.32 0.962,0.6 1.443,0.9 a 94.34,94.34 0 0 1 18.655,-15.25 3.657,3.657 0 0 1 -1.336,-2.21 z m -19.5,11.327 a 3.74,3.74 0 0 1 -2.754,-0.557 c -0.192,1.01 -0.392,2.014 -0.519,3.028 a 53.075,53.075 0 0 0 3.4,2.377 c 0.17,-0.189 0.33,-0.377 0.5,-0.566 0.073,-1.562 0.208,-3.115 0.424,-4.668 a 3.558,3.558 0 0 1 -1.055,0.386 z m 0,0 a 3.74,3.74 0 0 1 -2.754,-0.557 c -0.192,1.01 -0.392,2.014 -0.519,3.028 a 53.075,53.075 0 0 0 3.4,2.377 c 0.17,-0.189 0.33,-0.377 0.5,-0.566 0.073,-1.562 0.208,-3.115 0.424,-4.668 a 3.558,3.558 0 0 1 -1.055,0.386 z m 19.5,-11.327 a 100.37,100.37 0 0 0 -18.759,16.56 c 0.473,0.32 0.962,0.6 1.443,0.9 a 94.34,94.34 0 0 1 18.655,-15.25 3.657,3.657 0 0 1 -1.336,-2.21 z m 0,0 a 100.37,100.37 0 0 0 -18.759,16.56 c 0.473,0.32 0.962,0.6 1.443,0.9 a 94.34,94.34 0 0 1 18.655,-15.25 3.657,3.657 0 0 1 -1.336,-2.21 z m -19.5,11.327 a 3.74,3.74 0 0 1 -2.754,-0.557 c -0.192,1.01 -0.392,2.014 -0.519,3.028 a 53.075,53.075 0 0 0 3.4,2.377 c 0.17,-0.189 0.33,-0.377 0.5,-0.566 0.073,-1.562 0.208,-3.115 0.424,-4.668 a 3.558,3.558 0 0 1 -1.055,0.386 z m 0,0 a 3.74,3.74 0 0 1 -2.754,-0.557 c -0.192,1.01 -0.392,2.014 -0.519,3.028 a 53.075,53.075 0 0 0 3.4,2.377 c 0.17,-0.189 0.33,-0.377 0.5,-0.566 0.073,-1.562 0.208,-3.115 0.424,-4.668 a 3.558,3.558 0 0 1 -1.055,0.386 z m 19.5,-11.327 a 100.37,100.37 0 0 0 -18.759,16.56 c 0.473,0.32 0.962,0.6 1.443,0.9 a 94.34,94.34 0 0 1 18.655,-15.25 3.657,3.657 0 0 1 -1.336,-2.21 z m 0,0 a 100.37,100.37 0 0 0 -18.759,16.56 c 0.473,0.32 0.962,0.6 1.443,0.9 a 94.34,94.34 0 0 1 18.655,-15.25 3.657,3.657 0 0 1 -1.336,-2.21 z m -19.5,11.327 a 3.74,3.74 0 0 1 -2.754,-0.557 c -0.192,1.01 -0.392,2.014 -0.519,3.028 a 53.075,53.075 0 0 0 3.4,2.377 c 0.17,-0.189 0.33,-0.377 0.5,-0.566 0.073,-1.562 0.208,-3.115 0.424,-4.668 a 3.558,3.558 0 0 1 -1.055,0.386 z m 19.5,-11.327 a 100.37,100.37 0 0 0 -18.759,16.56 c 0.473,0.32 0.962,0.6 1.443,0.9 a 94.34,94.34 0 0 1 18.655,-15.25 3.657,3.657 0 0 1 -1.336,-2.21 z m 0,0 a 100.37,100.37 0 0 0 -18.759,16.56 c 0.473,0.32 0.962,0.6 1.443,0.9 a 94.34,94.34 0 0 1 18.655,-15.25 3.657,3.657 0 0 1 -1.336,-2.21 z"
       fill="#ff8600"
       id="path116" />
    <g
       data-name="Group 265"
       id="g140">
      <g
         data-name="Group 261"
         id="g130">
        <g
           data-name="Group 258"
           id="g122">
          <g
             data-name="Group 257"
             id="g120">
            <path
               data-name="Path 147"
               d="m 42.665,15.868 a 2.623,2.623 0 0 1 -2.1,2.386 2.787,2.787 0 0 1 -0.481,0.047 2.7,2.7 0 0 1 -1.283,-0.33 2.61,2.61 0 0 1 -1.296,-1.795 2.794,2.794 0 0 1 -0.047,-0.481 2.682,2.682 0 0 1 0.453,-1.481 2.554,2.554 0 0 1 1.669,-1.085 2.171,2.171 0 0 1 0.491,-0.047 2.608,2.608 0 0 1 1.216,0.3 c 0.085,0.047 0.17,0.094 0.255,0.151 a 2.531,2.531 0 0 1 1.084,1.66 2.306,2.306 0 0 1 0.039,0.675 z"
               fill="#ff8600"
               id="path118" />
          </g>
        </g>
        <g
           data-name="Group 260"
           id="g128">
          <g
             data-name="Group 259"
             id="g126">
            <path
               data-name="Path 148"
               d="m 41.071,47.953 a 3.163,3.163 0 0 1 -2.358,1.056 3.219,3.219 0 0 1 -3.16,-2.613 1.1,1.1 0 0 1 -0.028,-0.245 3.164,3.164 0 0 1 2.245,-3.414 1.868,1.868 0 0 1 0.33,-0.085 3.278,3.278 0 0 1 0.613,-0.066 3.139,3.139 0 0 1 1.783,0.556 2.827,2.827 0 0 1 0.566,0.491 3.061,3.061 0 0 1 0.783,1.556 3.194,3.194 0 0 1 -0.774,2.764 z"
               fill="#ff8600"
               id="path124" />
          </g>
        </g>
      </g>
      <g
         data-name="Group 264"
         id="g138">
        <g
           data-name="Group 263"
           id="g136">
          <g
             data-name="Group 262"
             id="g134">
            <path
               data-name="Path 149"
               d="m 18.352,25.507 c -0.047,0.076 -0.1,0.142 -0.151,0.208 a 2.606,2.606 0 0 1 -1.509,0.9 2.8,2.8 0 0 1 -0.481,0.047 2.626,2.626 0 0 1 -1.811,-0.726 2.555,2.555 0 0 1 -0.764,-1.4 2.612,2.612 0 0 1 1.924,-3.018 0.7,0.7 0 0 1 0.151,-0.038 2.149,2.149 0 0 1 0.491,-0.047 2.6,2.6 0 0 1 2.471,1.792 1.872,1.872 0 0 1 0.085,0.33 2.553,2.553 0 0 1 -0.406,1.952 z"
               fill="#ff8600"
               id="path132" />
          </g>
        </g>
      </g>
    </g>
  </g>
  <text
     xml:space="preserve"
     style="font-size:97.9169px;line-height:1.25;font-family:'Franklin Gothic Demi';-inkscape-font-specification:'Franklin Gothic Demi';text-align:center;text-anchor:middle;stroke-width:1.14746"
     x="641.86011"
     y="529.29401"
     id="text1102"><tspan
       sodipodi:role="line"
       id="tspan1100"
       x="641.86011"
       y="529.29401"
       style="stroke-width:1.14746">eXtended Guidance Method</tspan></text>
</svg>
